<svg id="Layer_1" data-name="Layer 1" xmlns="http://www.w3.org/2000/svg" viewBox="0 0 283.5 103.8"><defs><clipPath id="clip-path"><path fill="none" d="M-.1 0h108.8v59.6H-.1z"/></clipPath></defs><g id="r"><path class="cls-2" d="M282.7 1.5a.4.4 0 01.3 0 .2.2 0 010 .3.2.2 0 010 .2.2.2 0 01-.2 0l.3.5h-.1l-.3-.5h-.1v.4h-.2v-1zm0 .4a.1.1 0 00.1 0 .1.1 0 000-.1h-.2V2z"/><path class="cls-2" d="M282.7 1.3a.7.7 0 01.6.7.7.7 0 01-.6.6.7.7 0 01-.7-.6.7.7 0 01.7-.7m0 0a.8.8 0 10.7.7.8.8 0 00-.7-.8z"/></g><path class="cls-2" d="M247.5 29.5c1.6.2 2.1 1.4 2.1 2.8v3c0 2.3-1.7 3.6-4.5 3.6h-4.6v-18h4.7c2.7 0 4.3 1.3 4.3 3.5v2.3c0 1.2-.6 2.6-2 2.8zm-4-1.2h1.7a1.3 1.3 0 001.4-1.4v-2a1.2 1.2 0 00-1.4-1.5h-1.7zm1.8 2.5h-1.8v5.4h1.8a1.2 1.2 0 001.3-1.3v-2.7a1.3 1.3 0 00-1.3-1.4zM252.3 38.8v-18h7.8v2.7h-4.9v4.9h4.1V31h-4v5.2h5v2.6zM268.2 27.3v-2.5a1.5 1.5 0 10-3 0V26a1.8 1.8 0 001.2 1.8l2 1.2c1.8 1 2.8 1.8 2.8 3.7v2.6c0 2.7-1.7 3.7-4.4 3.7-2.8 0-4.5-1-4.5-3.7V32h3V35a1.5 1.5 0 103 0v-1.4a1.8 1.8 0 00-1.2-2l-2.1-1.1c-1.8-1-2.8-1.8-2.8-3.7v-2.3c0-2.7 2-3.7 4.5-3.7s4.4 1 4.4 3.7v2.9zM281.6 23.5h-3v15.3h-3V23.5h-3v-2.6h9zM226.8 46.5V50c0 2.7-1.8 3.8-4.5 3.8h-1.6v7h-3v-18h4.6c2.8 0 4.5 1 4.5 3.8zm-3 .5c0-1.3-.6-1.6-1.6-1.6h-1.5V51h1.5c1 0 1.7-.3 1.7-1.6zM236.8 60.7h-7.6v-18h3V58h4.6zM244.5 56.7h-3.2l-.7 4h-2.9l3.4-18h3.7l3.4 18h-3zm-.3-2.5l-1.3-8-1.3 8zM259 57.1c0 2.8-1.8 3.8-4.5 3.8-2.8 0-4.6-1-4.6-3.8V46.3c0-2.6 1.8-3.7 4.5-3.7 2.8 0 4.6 1 4.6 3.7v3.3h-3v-2.8c0-1.2-.6-1.6-1.6-1.6s-1.5.3-1.5 1.6v9.9c0 1.2.6 1.6 1.5 1.6s1.6-.4 1.6-1.6v-3.3h3zM261.9 60.7v-18h7.8v2.7h-4.9v4.9h4.1v2.6h-4v5.2h5v2.6zM277.8 49.2v-2.6a1.5 1.5 0 10-3 0V48a1.8 1.8 0 001.1 1.8l2.1 1.2c1.8 1 2.8 1.7 2.8 3.7v2.6c0 2.7-1.7 3.7-4.4 3.7h-.1c-2.7 0-4.4-1-4.4-3.7V54h2.9v2.7a1.5 1.5 0 103 0v-1.4a1.8 1.8 0 00-1.1-1.8l-2-1.2c-1.8-1-2.8-1.8-2.8-3.7v-2.4c0-2.6 2-3.7 4.4-3.7 2.5 0 4.4 1 4.4 3.7v3zM243.4 82.6h-2.8l-2.3-12.3-2.3 12.3h-2.9l-2.8-18h3l1.4 12.9 2.3-12.8h2.7l2.3 12.8 1.5-12.9h2.8zM252.5 64.4h.2c2.7 0 4.5 1.1 4.5 3.8V79c0 2.7-1.8 3.8-4.5 3.8h-.2c-2.7 0-4.5-1-4.5-3.8V68.2c0-2.7 1.8-3.8 4.5-3.8zm.1 15.8c1 0 1.6-.4 1.6-1.7v-9.8c0-1.3-.6-1.6-1.6-1.6s-1.6.3-1.6 1.6v9.8c0 1.3.6 1.7 1.6 1.7zM266.9 82.6l-2.3-7.2h-1.5v7.2h-3v-18h4.6c2.8 0 4.6 1.1 4.6 3.8v3.3a3.3 3.3 0 01-2 3.3l2.5 7.6zm-3.8-9.7h1.6c1 0 1.6-.4 1.6-1.7V69c0-1.3-.7-1.6-1.6-1.6H263zM279 82.6l-2.5-7.8-1.4 2.6v5.2h-3v-18h3v8.1l3.4-8h3.1l-3.4 6.7 3.7 11.2zM217.3 70.7h1.6V79h.9v-8.3h1.6V70h-4.1v.8zM224.9 69.8h-.1c-1.4 0-2.1.7-2.1 2v5.3a1.8 1.8 0 002 2h.2a1.8 1.8 0 002-2v-5.3a1.8 1.8 0 00-2-2zm1.3 2.3v4.8c0 1-.4 1.4-1.4 1.4s-1.3-.4-1.3-1.4V72c0-1.1.3-1.5 1.3-1.5s1.3.4 1.3 1.5z"/><path id="wordmark" class="cls-2" d="M224.7 3.2H223a.2.2 0 00-.1.2v.8a2.6 2.6 0 00-2.3-1.2c-1.7 0-3.2 1.3-3.2 3.6s1.4 3.6 3.3 3.6a2.6 2.6 0 002.2-1v.4c0 1-.5 1.8-2 1.8a2.8 2.8 0 01-2-.8.1.1 0 00-.2 0l-.7 1.2v.3a4.3 4.3 0 003 1c2.9 0 3.8-1.7 3.8-3.5V3.4a.2.2 0 00-.2-.2zm-3.5 5.3a1.8 1.8 0 01-1.8-1.8 1.8 1.8 0 011.8-1.9 1.7 1.7 0 011.8 1.9 1.8 1.8 0 01-1.8 1.8zm7-8V10a.1.1 0 01-.1.1h-1.6a.1.1 0 01-.1-.1V.6a.1.1 0 01.1-.2h1.5a.1.1 0 01.2.2zm4.6 2.6a3.2 3.2 0 00-3 1.4.2.2 0 000 .2l1 .8a.1.1 0 00.3 0 1.8 1.8 0 011.7-.8c.8 0 1.2.3 1.2.7v.2c0 .1-.1.2-.4.2l-1.9.2a2.2 2.2 0 00-2.2 2.2 2.2 2.2 0 002.3 2.1 2.4 2.4 0 002.2-1v.7a.2.2 0 00.1.2h1.5a.1.1 0 00.2-.2V5.9c0-1.9-1-2.8-3-2.8zm1.2 4.2a1.5 1.5 0 01-1.6 1.5c-.7 0-1-.3-1-.8s.3-.6.8-.7L234 7zm9.1.8c0 1.5-1.2 2.2-3 2.2a4 4 0 01-3-1 .2.2 0 010-.2l.9-1.2a.2.2 0 01.2 0 2.8 2.8 0 002 .8c.6 0 1-.2 1-.5s-.4-.5-1.5-.7-2.3-.7-2.3-2.2 1-2.2 2.9-2.2a3.7 3.7 0 012.7.9.1.1 0 010 .2l-.9 1a.1.1 0 01-.2 0 2.8 2.8 0 00-1.8-.5c-.5 0-.8.2-.8.5s.3.4 1.6.7 2.2.7 2.2 2.2zm7 0c0 1.5-1.2 2.2-3 2.2a4 4 0 01-3-1 .2.2 0 010-.2l.9-1.2a.2.2 0 01.2 0 2.8 2.8 0 002.1.8c.5 0 1-.1 1-.5s-.4-.5-1.6-.7-2.3-.7-2.3-2.2 1-2.3 2.9-2.3a3.7 3.7 0 012.7 1 .2.2 0 010 .2l-.8 1.1a.1.1 0 01-.3 0 2.7 2.7 0 00-1.7-.6c-.6 0-1 .2-1 .5s.5.4 1.7.7 2.2.7 2.2 2.2zm8.2-7.7h-1.6a.1.1 0 00-.1.2v3.6a2.8 2.8 0 00-2.4-1.2c-1.6 0-3.1 1.3-3.1 3.6s1.5 3.7 3.2 3.7a2.7 2.7 0 002.3-1.1v.8a.1.1 0 00.1.1h1.5a.1.1 0 00.2-.1V.6a.1.1 0 00-.1-.2zm-3.5 8.1a1.8 1.8 0 01-1.8-1.8 1.8 1.8 0 113.6 0 1.8 1.8 0 01-1.8 1.8zm8.5-5.5a3.5 3.5 0 00-3.8 3.7 3.7 3.7 0 007.5 0 3.5 3.5 0 00-3.7-3.7zm0 5.5a1.8 1.8 0 01-1.9-1.8 1.9 1.9 0 013.7 0 1.8 1.8 0 01-1.8 1.8zm8.4-5.5a3.5 3.5 0 00-3.7 3.7 3.7 3.7 0 007.5 0 3.5 3.5 0 00-3.8-3.7zm0 5.5a1.8 1.8 0 01-1.8-1.8 1.9 1.9 0 013.7 0 1.8 1.8 0 01-1.9 1.8zm9.8-5.1a.2.2 0 00-.1-.2 1.7 1.7 0 00-.8-.1 2.4 2.4 0 00-2.2 1.2v-1a.2.2 0 00-.2-.1h-1.4a.2.2 0 00-.2.1V10a.2.2 0 00.2.1h1.5a.1.1 0 00.1-.1V7a2 2 0 012.2-2 2.7 2.7 0 01.7.1.2.2 0 00.2-.1z"/><path class="cls-2" d="M216.3 103.2v-3.8h1.7v.5h-1v1h.9v.6h-.9v1.1h1v.6zM221.8 102.7h-.3l-.6-1.8v2.3h-.6v-3.8h.6l.8 2.2.7-2.2h.6v3.8h-.6v-2.4zM227.4 100.2v.7c0 .6-.4.8-1 .8h-.3v1.5h-.7v-3.8h1c.6 0 1 .2 1 .8zm-.6 0c0-.2-.1-.3-.4-.3h-.3v1.3h.3c.3 0 .4-.1.4-.4zM231.3 103.2h-1.6v-3.8h.7v3.2h1zM234.5 99.3c.6 0 1 .2 1 .8v2.3c0 .6-.4.8-1 .8s-1-.2-1-.8v-2.3c0-.6.4-.8 1-.8zm0 3.4c.2 0 .3 0 .3-.4v-2c0-.3-.1-.4-.3-.4s-.4 0-.4.3v2.1c0 .3.2.4.4.4zM239 103.2h-.6v-1.4l-.8-2.4h.7l.4 1.7.4-1.7h.7l-.8 2.4zM242 103.2v-3.8h1.7v.5h-1v1h.8v.6h-.9v1.1h1.1v.6zM246 103.2v-3.8h1.7v.5h-1v1h.8v.6h-.9v1.1h1.1v.6zM251.2 100.7v-.5a.3.3 0 00-.3-.3.3.3 0 00-.3.3v.3a.4.4 0 00.2.3l.5.3c.3.2.5.4.5.8v.5c0 .6-.3.8-.9.8-.6 0-1-.2-1-.8v-.6h.7v.6a.3.3 0 00.3.3.3.3 0 00.3-.3v-.3a.4.4 0 00-.2-.4l-.5-.3c-.3-.2-.5-.4-.5-.8v-.5c0-.6.4-.8.9-.8s1 .2 1 .8v.6zM254.8 100a1.4 1.4 0 01-.4.8l-.2-.1a1.5 1.5 0 00.2-.6h-.3v-.7h.7zM261.8 102.4c0 .6-.4.8-1 .8s-1-.2-1-.8v-2.3c0-.5.4-.8 1-.8s1 .3 1 .8v.7h-.6v-.6c0-.2-.2-.3-.4-.3s-.3 0-.3.3v2.1c0 .3.1.4.3.4s.4 0 .4-.4v-.7h.6zM264.8 99.4v1.6h.7v-1.6h.7v3.9h-.6v-1.7h-.8v1.6h-.6v-3.8zM269.6 99.3c.5 0 1 .2 1 .8v2.3c0 .6-.4.8-1 .8s-1-.2-1-.8v-2.3c0-.6.4-.8 1-.8zm0 3.4c.2 0 .3 0 .3-.4v-2c0-.3-.1-.4-.3-.4s-.4 0-.4.3v2.1c0 .3.2.4.4.4zM273 103.2v-3.8h.6v3.8zM278 102.4c0 .6-.4.8-1 .8s-1-.2-1-.8v-2.3c0-.5.4-.8 1-.8s1 .3 1 .8v.7h-.6v-.6c0-.2-.2-.3-.4-.3s-.3 0-.3.3v2.1c0 .3.1.4.3.4s.4 0 .4-.4v-.7h.6zM280.4 103.2v-3.8h1.7v.5H281v1h.9v.6h-.9v1.1h1v.6zM216.3 93.1h65.9v1h-65.9zM219.8 22.3a2 2 0 00-2.3 2.2v1.6h1v-1.4c0-1 .3-1.6 1.3-1.6s1.4.5 1.4 1.6v3c0 .7-.5 1.1-1.6 1.9-1.3.9-2.1 3.3-2.1 4.6v2.1h4.6v-.8h-3.7v-1.2c0-1 .5-3 1.6-4s2.1-1.5 2.1-2.5v-3.3a2 2 0 00-2.3-2.3zM225.8 22.3a2.1 2.1 0 00-2.4 2.3v9.5a2.1 2.1 0 002.3 2.4h.1a2.1 2.1 0 002.4-2.4v-9.5a2.1 2.1 0 00-2.4-2.4zm1.5 2.6v9c0 1.2-.5 1.7-1.5 1.7s-1.5-.5-1.5-1.7v-9c0-1.3.4-1.8 1.5-1.8s1.5.5 1.5 1.8zM230.2 22.4h-.3v14h.8v-14h-.5zM237 27.5v-2.9c0-1.5-.7-2.3-2-2.3h-.5c-1.4 0-2.2.8-2.2 2.3v3a1.6 1.6 0 00.8 1.6 1.9 1.9 0 00-.8 1.8V34c0 1.5.8 2.4 2.2 2.4h.4c1.4 0 2.2-.9 2.2-2.4V31a1.9 1.9 0 00-.8-1.8 1.6 1.6 0 00.8-1.7zm-2.4 2.1h.2c1 0 1.4.4 1.4 1.2V34c0 1.2-.4 1.7-1.4 1.7h-.2c-1 0-1.4-.5-1.4-1.7v-3c0-.9.4-1.3 1.4-1.3zm.2-.9h-.2c-1 0-1.4-.3-1.4-1.2v-2.7c0-1.2.5-1.7 1.4-1.7h.2c1 0 1.4.5 1.4 1.7v2.7c0 .9-.4 1.2-1.4 1.2zM117 0v48.3-48s-.2-.2 0-.3z"/><path class="cls-3" d="M137 91.5l3.7-5.9.2-.2h1.8v-3h.3l8 7.2 1.5 1.4 3.1-5h.1l1.6-.1a11.9 11.9 0 005.1-1.9 8.2 8.2 0 004-7v-3.4a8 8 0 00-.7-4 1.5 1.5 0 01.3-.4l2.9 2.1V75a27.4 27.4 0 000 2.9 8.1 8.1 0 004.5 6.6 13.1 13.1 0 005.5 1.4 13.7 13.7 0 006.2-1 8.7 8.7 0 005.6-8.5V64.1a9.1 9.1 0 00-1.6-5.3l4.3-7.5 3.3 1.9-.3-2-.4-3h2.2v42.9c0 .4 0 .4-.5.4h-60.6z"/><path class="cls-3" d="M140.8 58.2l5.6-9.7.1-.2a.6.6 0 01.4 0H188l-.1.3-4 6.8-.1-.1a14.7 14.7 0 00-8 0 10.2 10.2 0 00-4.3 2.4 8.7 8.7 0 00-2.7 6l-.4-.4-3.8-2.7v-5.3h-18.2l-.8 16.3a3.1 3.1 0 00.4 0l5.7.8a.5.5 0 00.5-.1 4 4 0 011-.9 4.3 4.3 0 014.1-.1l-1.6 2.6-3.2 5.2a3.1 3.1 0 01-.7-2.5H145.7l-4.3-3.8-4.1 6.6h-5l-.4-.1 2.7-3c1.6-1.7 3.2-3.3 4.6-5a12.6 12.6 0 003.1-6.8 11.2 11.2 0 000-2.5 8.3 8.3 0 00-1.5-3.8z"/><path class="cls-2" d="M184 55.3l4-6.8v-.2l-.1-.2-3-1.7 10.3-4 .6 4 .2 2 .4 2.9.3 2-3.2-2-4.3 7.5-.8-1a10.4 10.4 0 00-4.3-2.5zM148.4 37.5a2.6 2.6 0 011.3 2.2c0 1.2.2 2.4.4 3.6v.3h-2.5c-.2 0-.2-.2-.2-.3l-.4-3.6c0-.8-.4-1.2-1.2-1.2h-.9v5h-2.7V31.1H147.1a2.8 2.8 0 012.4 1.2 2.3 2.3 0 01.4 1.2v2a2.2 2.2 0 01-1.5 2zm-3.5-4.4v3.4H146.3c.6 0 .9-.3.9-.9V34a.8.8 0 00-.8-.8h-1.5zM179.8 43.6h-3c-.2 0-.3-.2-.3-.3l-2.7-5-.1-.2v5.4H171V31.1h2.7v5.1l.9-1.5 1.9-3.4a.5.5 0 01.5-.3h2.7l-.1.3-3.2 5.4a.5.5 0 000 .7l3.3 5.8zM159.6 21.4v3a2.9 2.9 0 01-2.4 3.1 5.6 5.6 0 01-3.6-.2 2.7 2.7 0 01-1.8-2.7v-6.4a3 3 0 012.4-3 5.6 5.6 0 013.7.2 2.7 2.7 0 011.7 2.6v3.4zm-2.7 0V18a1 1 0 00-.1-.5 1.4 1.4 0 00-1.5-.5 1 1 0 00-.8 1v6.6a1 1 0 00.8 1 1.8 1.8 0 00.9 0 .9.9 0 00.7-1zM160.1 43.6h-2.8l-.6-3h-2.1c-.2 0-.2.2-.2.3a168 168 0 00-.8 2.7h-2.5l3.2-12.6h2.5c.2 0 .2 0 .3.2l2.2 8.9.7 3.1zm-3.8-5l-.7-3.7-.8 3.7zM164.4 23v4.5h-2.6V15.1h4.2a4.3 4.3 0 012 .5 2.6 2.6 0 011.4 2.4v2a2.8 2.8 0 01-2.4 3 14 14 0 01-2.6 0zm0-2h1.5a.8.8 0 00.8-1v-2a.8.8 0 00-.8-.9h-1.5zM169 35.5h-2.6v-1.3c0-.5 0-.8-.5-1a1.6 1.6 0 00-1.6 0 .8.8 0 00-.4.6v7a.8.8 0 00.4.6 1.9 1.9 0 001.8 0 1 1 0 00.3-.9v-1.4h2.6a8.7 8.7 0 01-.2 2.5 3 3 0 01-2.3 1.9 5.3 5.3 0 01-3.8-.4 2.5 2.5 0 01-1.5-2.3v-7a2.6 2.6 0 011.8-2.5 5.3 5.3 0 014.4.1 2.6 2.6 0 011.6 2.3v1.8zM143.5 15.1h6.8v2h-2v10.5h-2.7V17.1h-2zM135.7 33h-2.1v-2h6.8v2h-2v10.5h-2.8zM177.4 9.1H176l.1-.1c.3-.1.4-.3.4-.6V4.7c0-.3 0-.7-.5-.7 0-.2.2-.1.2-.1h1.6c.2 0 .2 0 .3.2l.9 2.6V7l.8-2.2c.2-.3.2-.7.4-.9s.6 0 1 0a4.3 4.3 0 01.8 0l-.1.1c-.3 0-.4.2-.4.4V8c0 .5-.1 1 .5 1.2h-2.4c.5-.4.5-.4.5-1V5.4L178.7 9h-.5L177 5.3v2.9c0 .3 0 .7.4.7v.2zM129.6 9.1c.6-.2.4-.7.4-1.1V4.8c0-.5 0-.5-.5-.9h2.4c-.6.2-.5.7-.5 1.1v1.3h1.4V4.4c0-.3-.2-.3-.4-.5h2.3V4c-.4 0-.4.4-.4.8v3.4c0 .4 0 .8.5.8v.1h-2.4c.4-.2.5-.4.5-.8V6.6h-1.5v2c0 .3.4.3.6.5zM154.2 9c.6 0 .5-.5.5-.9V5c0-.4 0-.9-.5-1h2.2a2.4 2.4 0 012.7 2.7 3.7 3.7 0 010 .7 2 2 0 01-2.2 1.8h-2.6zm1.9-4.8v4a.5.5 0 00.4.6.7.7 0 00.7-.1 1 1 0 00.3-.5 6 6 0 000-3c-.2-.8-.6-1-1.4-1zM150.5 9.1H149a.3.3 0 000-.1c.6-.1.6-.6.5-1V4.9c0-.4.1-.9-.5-1a3.3 3.3 0 01.9 0 1.3 1.3 0 011.4.7l1.6 2.2c.2 0 0-.1 0-.2V5c0-.4.2-.9-.5-.9h1.6c-.5 0-.6.4-.5.8v4.3c-.6.1-.7 0-1-.4l-2.2-3a.5.5 0 00-.2-.2v2.6c0 .4 0 .8.5.8-.1.1-.1.1 0 .2zM135 4h3.7v1.3c-.2-.3-.3-.8-.6-1a2 2 0 00-1.2-.1v2c.7.2 1 0 1.3-.6a3.9 3.9 0 010 1.9c-.1-.3-.2-.7-.6-.8a1.6 1.6 0 00-.7 0V8c0 .3 0 .6.3.8a1 1 0 001.1-.3 1.7 1.7 0 00.4-.5.6.6 0 01.2-.4 8.5 8.5 0 010 1.5H135V9c.4-.1.5-.4.5-.8V5c0-.4.1-.8-.5-1zM164 9.1h-2.8c0-.2.2-.1.3-.2a.4.4 0 00.4-.5c-.3-1-.3-1-1.3-1h-.4l-.2.7c-.2.6-.2.7.4 1a3.9 3.9 0 01-1.7 0v-.2c.5 0 .7-.4.8-.8l1.3-3.9c0-.2.1-.4.4-.4s.7 0 .8.4l1.2 3.5c.2.5.2 1.1.8 1.4zm-3.7-2h1.1l-.6-1.6zM182.2 4h3.8a6.3 6.3 0 010 1.3c-.2-.3-.3-.7-.6-1a2.1 2.1 0 00-1.2-.1v2a1.6 1.6 0 00.8 0c.3-.1.4-.4.6-.6v1.8a1 1 0 00-1.4-.7v1.6c0 .6.5.7 1 .5a1.2 1.2 0 00.8-.9.4.4 0 01.2-.3V9h-3.9c.6-.2.5-.7.5-1V4.6c0-.3 0-.7-.5-.7zM144 4h2.4c-.5 0-.5.5-.5.8v3a.9.9 0 00.7 1 1 1 0 001.2-.6 2.5 2.5 0 00.2-1V4.8c0-.3 0-.7-.6-.8a8 8 0 011.5 0c-.4.1-.5.5-.5.9v2.3a2.8 2.8 0 01-.1 1 1.5 1.5 0 01-1.1 1 2.7 2.7 0 01-1.6-.1 1.4 1.4 0 01-1-1.3v-2V5c-.1-.7-.1-.7-.6-1zM166.9 9.1h-2.6V9c.6 0 .6-.4.6-.8V8a3 3 0 00-.5-2l-.5-1c-.2-.3-.3-.8-.9-1h2.5v.2c-.5.2-.5.2-.3.6l.8 1.7.9-1.8c0-.3 0-.3-.4-.6h1.5c-.5.1-.7.6-.9 1a6.5 6.5 0 01-.3.8 4 4 0 00-.5 2.7c0 .3.1.5.5.5v.1zM173.2 4v1.3h-.1c-.2-.6-.5-1.2-1.3-1.2a.6.6 0 000 .4V8c0 .4 0 .9.6.8V9h-2.6c.5 0 .6-.3.6-.7V4.1c-.8 0-1 .6-1.3 1.3V3.9zM143.6 3.8v1.5c-.2 0-.2-.1-.2-.3a1.3 1.3 0 00-1.3-1 .7.7 0 00-.7.5.7.7 0 00.3.7 4 4 0 00.8.5 5 5 0 01.8.5 1.6 1.6 0 01-.7 3 2.7 2.7 0 01-1.2-.1 1 1 0 00-.8 0 4.3 4.3 0 010-1.6c.2.1.1.3.1.4a1.3 1.3 0 001.6.9.8.8 0 00.4-1.2 1.9 1.9 0 00-.6-.5l-1-.6a1.5 1.5 0 01-.5-1.7 1.5 1.5 0 011.4-1 3 3 0 01.8.1.8.8 0 00.8 0zM125.2 3.9h4.1v1.4c-.3-.6-.5-1.2-1.3-1.2v4.4c0 .2 0 .2.6.5H126c.6-.2.6-.2.6-.8V4c-.9 0-1.1.7-1.3 1.3h-.1zM186.4 9.2a11.3 11.3 0 01.1-1.6c.2 0 .2.2.2.3a1.2 1.2 0 001.5 1 .8.8 0 00.4-1.2 2.7 2.7 0 00-.7-.6 5.3 5.3 0 01-1-.6 1.5 1.5 0 01-.5-1.6 1.4 1.4 0 011.3-1 2.8 2.8 0 011 0c.2 0 .5.2.8 0V5a.3.3 0 010 .2c-.2 0-.2-.2-.3-.3a1.3 1.3 0 00-1.3-.9.6.6 0 00-.6.5.6.6 0 00.2.6 2.9 2.9 0 00.6.4l1 .5a1.6 1.6 0 01.7 2 1.7 1.7 0 01-1.7 1.1 2.6 2.6 0 01-.8 0 1 1 0 00-.9 0zM175.8 4c-.6 0-.5.4-.5.7v3.6c0 .3 0 .7.5.7a13 13 0 01-2.4 0c.6-.2.5-.7.5-1V4.7c0-.4 0-.8-.5-1h2.3zM146.5 48.4z"/><path class="cls-3" d="M125 85.3h8.5l-2 3.2-1.7 2.8a.4.4 0 01-.5.2H121.4z"/><path class="cls-4" d="M133.6 85.3l3.5-5.6.1-.3h5a.7.7 0 01.5 0v3.2l-1.7 2.8h-7z"/><path class="cls-2" d="M122.5 80.9zM121.6 64.8zM122.5 85.3z"/><path class="cls-4" d="M152.6 79a1.8 1.8 0 00.7.6 5.1 5.1 0 002.6.5 3.2 3.2 0 003.2-3c.1-1 0-2.1 0-3.2a2.9 2.9 0 00-.5-1.7 4.6 4.6 0 00-1.1-1l1.6-2.6 1.4-2.3h.2a8.3 8.3 0 013.2 1.4 5.3 5.3 0 011.8 2 1.5 1.5 0 01-.1.3l-8 12.9-1.8 3h-.1a22.4 22.4 0 01-2.3-.1 12.3 12.3 0 01-4.6-1.4 7 7 0 01-3.3-3.6 6.9 6.9 0 01-.5-2.3v-2h.8l.1.2 4 3.5 1.3 1.1z"/><path class="cls-2" d="M145.7 76.6h-.7v1.9a6.9 6.9 0 00.4 2.3 7 7 0 003.4 3.6 12.3 12.3 0 004.5 1.4 22.4 22.4 0 002.3.1l-3 5-1.6-1.3-8-7.1c-.1-.1-.2-.2-.3 0v-3a.7.7 0 00-.5-.1h-4.9l4.1-6.7z"/><path class="cls-4" d="M176.2 76.7a6 6 0 01-1.1-.7l-6-4.4-.2-.1v-.1-.5-7.2l5 3.6 2.3 1.7v7.5a2.5 2.5 0 010 .2z"/><path class="cls-2" d="M169 63.7v7.7l-3-2.1a1.5 1.5 0 00-.3.4 5.3 5.3 0 00-1.8-2 8.3 8.3 0 00-3.2-1.4h-.1l3.1-5h.2a2.2 2.2 0 00.6 0c.3-.2 0-.5.2-.7l3.8 2.8.4.3z"/><path class="cls-4" d="M189.2 58.9l-2.1 3.6-3.3 5.8-.2.5h-.1v-5a3.1 3.1 0 00-2.5-3l3-5.4a10.4 10.4 0 014.3 2.5l.8 1z"/><path class="cls-2" d="M141 85.3c.5-1 1.1-1.8 1.7-2.7v2.7zM157.4 71.3a4.6 4.6 0 011.2 1 2.9 2.9 0 01.6 1.6v3.2a3.2 3.2 0 01-3.3 3 5.1 5.1 0 01-2.6-.5 1.8 1.8 0 01-.7-.5l3.2-5.2zM163.7 61.1c.3-.2.4-.6.6-.9l.3.2.1.1c-.1.2.1.5-.1.6a2.2 2.2 0 01-.7 0h-.2zM137.2 79.4H132s-.3 0-.1-.1h4.9l.4.1zM181 60.8a3.1 3.1 0 012.6 3v5l-5.4 9.5-2-1.4v-.1a2.5 2.5 0 000-.3V69a6.4 6.4 0 00.6-.9q2-3.7 4.2-7.3z"/><path class="cls-2" d="M176.2 76.8l1.9 1.4 5.4-9.4v7.5a3.9 3.9 0 01-.7 2.4 3.6 3.6 0 01-3.4 1.3 3.4 3.4 0 01-3.2-3.2z"/><path class="cls-3" d="M163.7 61.1l-3.1 5h-.1a11.7 11.7 0 00-8.6 1.6l.3-6.6z"/><path class="cls-2" d="M181 60.8l-4.2 7.3a6.4 6.4 0 01-.6.9v-5.2a3.3 3.3 0 013-3.1 5 5 0 011.8 0z"/><path class="cls-2" d="M198.6 103.5H117V.3h81.6zm-81.5-.1h81.4V.4H117z"/><path class="cls-2" d="M198.9 103.8h-82.2V0h82.2zm-81.5-.7h80.8V.7h-80.8z"/><path class="cls-2" d="M154 94.7a1 1 0 00-1 1v3.5a1.1 1.1 0 002.1 0v-3.6a1 1 0 00-1-1zM169.3 98.1c-.6 0-1 .3-1 .9v.5a1 1 0 001 1c.6 0 1-.4 1-1V99c0-.6-.5-.9-1-.9zM169.3 96.7a1 1 0 001-.9v-.4c0-.6-.5-.9-1-.9s-1 .3-1 .8v.6c0 .6.4.8 1 .8z"/><path class="cls-2" d="M197.7 91.5h-60.3-.3l3.6-5.9.2-.2h-7.4l-2 3-1.7 3a.4.4 0 01-.4.2h-7.9l3.5-6.3h-2.5V81v-.1l7.5-8.6c1.3-1.5 2.6-3 3.8-4.7a6.7 6.7 0 001.3-3 5 5 0 00-.2-2.5 2.5 2.5 0 00-2-1.6 4.7 4.7 0 00-2.7.1 2.6 2.6 0 00-1.5 1.5 5 5 0 00-.3 2v.7h-6.8a15.7 15.7 0 01.1-3.3 7.3 7.3 0 011.9-3.7 9.6 9.6 0 015.7-2.8 18.1 18.1 0 013.5-.3 11 11 0 016.3 2 6.6 6.6 0 011.6 1.4v.1l5.7-9.7.1-.2h-29a.2.2 0 00-.3.2v54.9h81.1V92.2c0-.8.1-.7-.6-.7zm-48.6 10.3h-5.8v-1.3l2.5-3c.7-.6 1.2-1.2 1.2-2 0-.4-.2-1-1-1s-1 .5-1 1.1v.3h-2v-.4c0-1.7 1.3-2.5 3-2.5s3 1 3 2.6-1.3 2.6-2.2 3.6l-.9.9h3.2zm8.2-2.6c0 2-1.7 2.8-3.3 2.8s-3.2-.7-3.2-2.7v-3.6c0-2 1.6-2.8 3.2-2.8s3.3.8 3.3 2.8zm7 2.6H159v-1.5h1.7V95l-1.7.1v-1.5l2.9-.5h.8v7.3h1.6zm8.2-2.2c0 1.5-1.4 2.4-3.2 2.4s-3.2-.7-3.2-2.4V99a1.9 1.9 0 011-1.7 1.8 1.8 0 01-.9-1.6v-.4c0-1.5 1.5-2.4 3-2.4s3.2.7 3.2 2.4v.4a1.8 1.8 0 01-1 1.6 1.8 1.8 0 011.1 1.6z"/><g clip-path="url(#clip-path)" opacity=".2"><path class="cls-2" d="M14.4 1c.7 0 1.1-.4 1.1-1.1h-2.2A1 1 0 0014.4 1zM81.3 1c.7 0 1-.4 1-1.1h-2.1a1 1 0 001 1.2zM43.7 1c.7 0 1-.4 1.1-1.1h-2.2c0 .7.4 1.2 1 1.2zM93.8 1c.7 0 1-.4 1.1-1.1h-2.2c0 .7.4 1.2 1 1.2zM56.2 1C57 1 57.3.7 57.3 0h-2.1a1 1 0 001 1.2zM110.5 1c.8 0 1.1-.4 1.2-1.1h-2.2a1 1 0 001 1.2zM27 1c.6 0 1-.4 1-1.1H26a1.1 1.1 0 001 1.2zM1.9 1C2.6 1.2 3 .7 3 0H.8a1.1 1.1 0 001 1.2zM68.7 1C69.5 1 69.8.7 70 0h-2.2c0 .7.4 1.2 1 1.2zM6 1c.8.1 1.1-.4 1.2-1.1H5A1 1 0 006 1zM10.4 1a1 1 0 001-1.1H9c.1.7.5 1.3 1.3 1.2zM18.5 1c.8.2 1.1-.4 1.3-1.1h-2.2a1 1 0 001 1.2zM22.9 1a1 1 0 001-1.1h-2.2c0 .7.4 1.3 1.2 1.2zM31 1c.8.2 1.2-.4 1.3-1.1H30a1 1 0 001 1.2zM35.3 1c.8.2 1.1-.4 1.2-1.1h-2.2a1 1 0 001 1.2zM39.6 1a1 1 0 001-1.1h-2.2c.1.7.5 1.3 1.2 1.2zM47.8 1c.8.1 1.1-.4 1.2-1.1h-2.1a1 1 0 00.9 1.2zM52.2 1a1 1 0 001-1.1h-2.3c.1.7.5 1.3 1.3 1.2zM60.3 1c.8.2 1.2-.4 1.3-1.1h-2.2a1 1 0 001 1.2zM64.7 1a1 1 0 001-1.1h-2.3c.2.7.5 1.3 1.3 1.2zM72.8 1c.8.2 1.2-.4 1.3-1.1h-2.2a1 1 0 001 1.2zM77.2 1a1 1 0 001-1.1H76c0 .7.4 1.3 1.2 1.2zM85.4 1c.8.2 1.1-.4 1.2-1.1h-2.2a1 1 0 001 1.2zM89.7 1a1 1 0 001-1.1h-2.2c.1.7.5 1.3 1.2 1.2zM97.9 1c.8.2 1.1-.4 1.2-1.1H97a1 1 0 00.9 1.2zM102.1 1c.8.2 1.2-.4 1.3-1.1h-2.2a1 1 0 001 1.2zM106.5 1a1 1 0 001-1.1h-2.2c0 .7.4 1.3 1.2 1.2zM114.7 1c.7.2 1-.4 1.2-1.1h-2.2a1 1 0 001 1.2zM115.8 2c0 .6.2 1 .9 1V1.1c-.7 0-1 .5-1 1zM115.8 6.2a1 1 0 00.9 1V5.5a.8.8 0 00-.9.8zM115.9 10.5c0 .5.2.8.8.8V9.4a1 1 0 00-.8 1.1zM115.9 14.6a1 1 0 00.8 1v-2a1 1 0 00-.8 1zM116 18.9a.8.8 0 00.7.7V18a.9.9 0 00-.8 1zM116 22.9c0 .4.1.8.7.8v-1.4c-.4 0-.6.2-.7.6zM116 27.2c0 .3.2.7.7.6v-1.3c-.5 0-.6.3-.6.7zM116.1 31.4a.7.7 0 00.6.6v-1.2a.5.5 0 00-.6.6zM116.2 35.5c0 .4.1.6.5.6V35c-.4 0-.5.2-.5.5zM33.3 1a1.2 1.2 0 00-1.1 1 1.2 1.2 0 001 1.2A1 1 0 0034.4 2a1 1 0 00-1-1.1zM-.2 3.2A1.1 1.1 0 00.9 2 1.1 1.1 0 000 1a1 1 0 00-1 1 1 1 0 00.9 1.2zM12.3 3.2A1.1 1.1 0 0013.4 2a1.1 1.1 0 00-1-1.1 1 1 0 00-1 1 1 1 0 001 1.2zM4 1a1.1 1.1 0 00-1 1 1.1 1.1 0 001 1.2A1 1 0 005 2 1 1 0 004 1zM16.5 1a1.1 1.1 0 00-1 1.1 1.1 1.1 0 001 1 1 1 0 001-1 1 1 0 00-1-1.1zM108.4 3.2a1.1 1.1 0 001.2-1.1 1.1 1.1 0 00-1.1-1.1 1 1 0 00-1 1 1 1 0 001 1.2zM45.8 1a1.1 1.1 0 00-1 1 1.1 1.1 0 001 1.2 1 1 0 001-1.1 1 1 0 00-1-1.1zM24.9 3.2A1.1 1.1 0 0026 2a1.1 1.1 0 00-1.2-1 1 1 0 00-1 1.1 1 1 0 001 1zM96 1a1.1 1.1 0 00-1.1 1 1.1 1.1 0 001 1.2 1 1 0 001-1A1 1 0 0096 1zM29 1a1.1 1.1 0 00-1 1.1 1.1 1.1 0 001.1 1 1 1 0 001-.9c0-.8-.4-1.2-1-1.2zM41.6 3.2a1.1 1.1 0 001.1-1 1.1 1.1 0 00-1-1.2 1 1 0 00-1 1 1 1 0 00.9 1.2zM112.7 1a1.1 1.1 0 00-1.1 1.1 1.1 1.1 0 001.1 1 1 1 0 001-1 1 1 0 00-1-1.1zM54.1 3.2A1.1 1.1 0 0055.3 2a1.1 1.1 0 00-1-1.1 1 1 0 00-1 1.1 1 1 0 001 1zM58.3 1a1.1 1.1 0 00-1 1 1.1 1.1 0 001 1.2 1 1 0 001-1.2 1 1 0 00-1-1zM66.6 3.2A1.1 1.1 0 0067.8 2 1.1 1.1 0 0066.7 1a1 1 0 00-1 1 1 1 0 001 1.2zM70.9 1a1.1 1.1 0 00-1.1 1.1 1.1 1.1 0 001 1A1 1 0 0072 2a1 1 0 00-1-1zM79.1 3.2a1.1 1.1 0 001.2-1 1.1 1.1 0 00-1-1.2 1 1 0 00-1 1 1 1 0 00.8 1.2zM83.4 1a1.1 1.1 0 00-1.1 1.1 1.1 1.1 0 001.1 1 1 1 0 001-1 1 1 0 00-1-1.1zM91.7 3.2A1.1 1.1 0 0092.8 2a1.1 1.1 0 00-1-1.1 1 1 0 00-1 1 1 1 0 00.9 1.2zM100.2 1A1.2 1.2 0 0099 2.1a1.2 1.2 0 001.1 1 1.1 1.1 0 001-1 1.1 1.1 0 00-1-1.1zM8.2 1A1.2 1.2 0 007 2a1.2 1.2 0 001.1 1.2 1.2 1.2 0 001-1.1 1.2 1.2 0 00-1-1.1zM104.3 1a1.2 1.2 0 00-1 1 1 1 0 102 0 1.2 1.2 0 00-1-1zM20.8 1a1.2 1.2 0 00-1.2 1 1.2 1.2 0 001.1 1.2 1.2 1.2 0 001-1.1 1.2 1.2 0 00-1-1.1zM37.5 1a1.2 1.2 0 00-1.1 1.1 1 1 0 102.1 0 1.2 1.2 0 00-1-1.1zM50 1a1.2 1.2 0 00-1.1 1 1.2 1.2 0 001 1.2A1.2 1.2 0 0051 2 1.2 1.2 0 0050 1zM62.5 1a1.2 1.2 0 00-1 1 1 1 0 102 0 1.2 1.2 0 00-1-1zM75 1a1.2 1.2 0 00-1 1.1 1.2 1.2 0 001 1 1.2 1.2 0 001.1-1 1.2 1.2 0 00-1-1.1zM87.6 1a1.2 1.2 0 00-1.1 1 1.2 1.2 0 001 1.1 1.2 1.2 0 001.1-1 1.2 1.2 0 00-1-1.1zM44 3.2c-.8 0-1.3.3-1.4.9a1.2 1.2 0 001 1.1 1.1 1.1 0 001.2-1 1 1 0 00-.9-1zM14.4 3.2a1 1 0 00-1 1 1.1 1.1 0 001 1 1.2 1.2 0 001-1 1 1 0 00-1-1zM26.8 3.2a1 1 0 00-.9 1 1.1 1.1 0 001.1 1 1.2 1.2 0 001-1c0-.6-.4-1-1.2-1zM56.3 3.2a1 1 0 00-1.1 1 1 1 0 002.1 0 1 1 0 00-1-1zM69 3.2c-.8 0-1.3.4-1.3 1a1.2 1.2 0 001 1 1.1 1.1 0 001-1 1 1 0 00-.8-1zM81.1 3.2a1 1 0 00-.9 1 1.1 1.1 0 001.1 1 1.2 1.2 0 001-1c0-.6-.4-1-1.2-1zM93.8 3.2a1 1 0 00-1 1 1.1 1.1 0 001 1 1.1 1.1 0 001-1 1 1 0 00-1-1zM110.6 3.2a1 1 0 00-1.1 1 1 1 0 002.1 0 1 1 0 00-1-1zM2 3.2a1 1 0 00-1.2 1 1.2 1.2 0 001.1 1 1.2 1.2 0 001.1-1 1 1 0 00-1-1zM89.7 3.2a1 1 0 00-1 1 1 1 0 001 1 1 1 0 001-1 1 1 0 00-1-1zM22.8 3.2a1 1 0 00-1 1 1 1 0 001 1 1 1 0 001-1.1 1 1 0 00-1-1zM73 3.2a1 1 0 00-1 1 1 1 0 001 1A1 1 0 0074 4a1 1 0 00-1-1zM77.1 3.2a1 1 0 00-1 1 1 1 0 001 1 1 1 0 001-1 1 1 0 00-1-1zM100.2 5.2a1.2 1.2 0 00-1.2 1 1.1 1.1 0 001 1 1 1 0 001.1-1 1.1 1.1 0 00-1-1zM10.3 3.2a1 1 0 00-1 1 1 1 0 001 1 1 1 0 001-1 1 1 0 00-1-1zM85.5 3.2a1 1 0 00-1 1 1 1 0 001 1 1 1 0 001-1 1 1 0 00-1-1zM31.1 3.2a1 1 0 00-1 1 1 1 0 001 1 1 1 0 001-1 1 1 0 00-1-1zM39.6 3.2a1 1 0 00-1 1 1 1 0 001 1 1 1 0 001-1 1 1 0 00-1-1zM6 3.2a1 1 0 00-1 1 1 1 0 001 1 1 1 0 001-1 1 1 0 00-1-1zM47.8 5.2a1 1 0 001-.8 1 1 0 00-.7-1.2 1 1 0 00-1.2.9 1 1 0 00.9 1.1zM52.3 3.2A1 1 0 0051 4a1 1 0 102 .3 1 1 0 00-.8-1.1zM18.6 3.2a1 1 0 00-1 1 1 1 0 001 1 1 1 0 001-1 1 1 0 00-1-1zM60.4 3.2a1 1 0 00-1 1 1 1 0 001 1 1 1 0 001-1 1 1 0 00-1-1zM64.6 3.2a1 1 0 00-1 1 1 1 0 001 1 1 1 0 001-1 1 1 0 00-1-1zM98 3.2a1 1 0 00-1 1 1 1 0 001 1 1 1 0 001-1 1 1 0 00-1-1zM102.2 3.2a1 1 0 00-1 1 1 1 0 001 1 1 1 0 001-1 1 1 0 00-1-1zM106.4 3.2a1 1 0 00-1 1 1 1 0 001 1 1 1 0 001-1 1 1 0 00-1-1zM35.4 3.2a1 1 0 00-1 1 1 1 0 001 1 1 1 0 001-1 1 1 0 00-1-1zM114.8 3.2a1 1 0 00-1 1 1 1 0 001 1 1 1 0 001-1 1 1 0 00-1-1zM33.3 5.2a1.2 1.2 0 00-1.1 1 1.2 1.2 0 001 1 1 1 0 001.1-1 1.1 1.1 0 00-1-1zM83.4 5.2a1 1 0 00-1 1 .9.9 0 00.8 1c.8 0 1.2-.3 1.2-1a1.1 1.1 0 00-1-1zM91.7 5.2a1.1 1.1 0 00-1 1c0 .6.5 1 1.2 1a1 1 0 00.9-1 1 1 0 00-1-1zM95.9 5.2a1 1 0 00-1 1.1.9.9 0 00.8 1c.8 0 1.2-.5 1.2-1a1.1 1.1 0 00-1-1zM108.5 5.2a1.1 1.1 0 00-1 1 1 1 0 001 1 .9.9 0 001-.7c0-.8-.4-1.3-1-1.3zM112.7 5.2a1 1 0 00-1 1 1 1 0 001 1 1 1 0 001-1 1 1 0 00-1-1zM-.2 5.2a1 1 0 00-1 1 1 1 0 001.1 1 .9.9 0 001-.8c0-.7-.5-1.2-1-1.2zM4 5.2c-.6 0-1 .3-1 1a1 1 0 001 1 1 1 0 001-1 1 1 0 00-1-1zM12.4 5.2a1.1 1.1 0 00-1 1c0 .6.3 1 1 1a.9.9 0 001-1 1 1 0 00-1-1zM16.6 5.2a1 1 0 00-1 1 .9.9 0 00.9 1 1 1 0 001-1 1.1 1.1 0 00-1-1zM24.9 5.2a1.1 1.1 0 00-1 1 1 1 0 001 1 .9.9 0 001-.8c0-.7-.4-1.2-1-1.2zM29 5.2c-.5 0-1 .5-1 1.2a.9.9 0 001 .9 1 1 0 001-1 1 1 0 00-1-1zM79.2 5.2a1 1 0 00-1 1 1 1 0 001 1 .8.8 0 001-.8c0-.8-.5-1.2-1-1.2zM41.6 5.2a1.1 1.1 0 00-1 1 1 1 0 001.1 1 .9.9 0 001-1 1 1 0 00-1-1zM45.8 5.2c-.6 0-1 .4-1 1a1 1 0 001 1 1 1 0 001-1 1.1 1.1 0 00-1-1zM54.1 5.2a1.1 1.1 0 00-1 1 1 1 0 001.1 1 .9.9 0 001-.7c0-.8-.5-1.3-1-1.3zM58.3 5.2a1 1 0 00-1 1.1.9.9 0 001 1 1 1 0 001-1 1.1 1.1 0 00-1-1zM66.7 5.2a1.1 1.1 0 00-1 1c0 .6.4 1 1.1 1a.9.9 0 00.9-1 1 1 0 00-1-1zM70.8 5.2c-.5 0-1 .4-1 1a1 1 0 001 1 1 1 0 001.1-1 1 1 0 00-1-1zM10.2 7.3a1 1 0 00-1 1 1 1 0 001 1 1 1 0 001-1 1 1 0 00-1-1zM22.8 7.3a1 1 0 00-1 1 1.1 1.1 0 001 1 1 1 0 001-1 1 1 0 00-1-1zM31.1 7.3a1 1 0 00-1 1 1 1 0 102 0c0-.5-.5-1-1-1zM35.4 7.3a1 1 0 00-1 1 1 1 0 001 1 1 1 0 001-1 1 1 0 00-1-1zM39.5 7.3a1 1 0 00-1 1 1.1 1.1 0 001 1 1 1 0 001.1-1 1 1 0 00-1-1zM48 7.3a1 1 0 00-1 1 1 1 0 001 1c.4 0 1-.4 1-1.1a1 1 0 00-1-.9zM52 7.3a1 1 0 00-1 1 1 1 0 102 0 1 1 0 00-1-1zM60.4 7.3a1 1 0 00-1 1 1 1 0 102 0 1 1 0 00-1-1zM64.6 7.3a1 1 0 00-1 1 1.1 1.1 0 001 1 1 1 0 001-1 1 1 0 00-1-1zM73 7.3a1 1 0 00-1 1 1 1 0 001 1c.5 0 1-.4 1-1a1.1 1.1 0 00-1-1zM8.2 5.2a1 1 0 00-1 1.1 1 1 0 002 0 1 1 0 00-1-1zM77.1 7.3a1 1 0 00-1 1 1 1 0 102 0 1 1 0 00-1-1zM85.5 7.3a1 1 0 00-1 1 1 1 0 102 0 1 1 0 00-1-1zM20.7 5.2a1 1 0 00-1 1.1 1 1 0 001 1 1 1 0 001-1 1 1 0 00-1-1zM89.7 7.3a1 1 0 00-1 1 1.1 1.1 0 001 1 1 1 0 001-1 1 1 0 00-1-1zM98 7.3a1 1 0 00-1 1 1 1 0 001 1 1 1 0 001-1 1.1 1.1 0 00-1-1zM102.2 7.3a1 1 0 00-1 1 1 1 0 102 0 1 1 0 00-1-1zM37.5 5.2a1.1 1.1 0 00-1 1 1.1 1.1 0 001.1 1c.5 0 .8-.3.9-.9a1 1 0 00-1-1zM106.4 7.3a1 1 0 00-1 1 1 1 0 102 0 1 1 0 00-1-1zM114.8 7.3a1 1 0 00-1 1 1 1 0 001 1c.4 0 1-.4 1-1.1a1 1 0 00-1-.9zM50 5.2a1 1 0 00-1 1.1c0 .6.4 1 .8 1a1.1 1.1 0 001.2-1 1.1 1.1 0 00-1-1zM18.6 7.3a1 1 0 00-1 1 1 1 0 001 1 1.1 1.1 0 001-1c0-.5-.5-1-1-1zM87.6 5.2a1 1 0 00-1 1 1 1 0 002 0 1 1 0 00-1-1zM62.5 5.2a1 1 0 00-1 1.1 1 1 0 001 1 1 1 0 001-1 1 1 0 00-1-1zM104.3 5.2a1 1 0 00-1 1 1 1 0 00.9 1 1.2 1.2 0 001.2-1 1.1 1.1 0 00-1-1zM6.2 7.3a1 1 0 00-1.1 1 1 1 0 001 1 1 1 0 001-1 1.1 1.1 0 00-1-1zM75 5.2a1 1 0 00-1 1.1 1 1 0 001 1 1 1 0 001-1 1 1 0 00-1-1zM100 9.5a.9.9 0 00-.9.8c0 .7.5 1.2 1 1.2a1 1 0 001-1 1 1 0 00-1-1zM33.3 9.5a.9.9 0 00-1 .7c0 .8.4 1.3 1 1.3a1 1 0 001-1 1 1 0 00-1-1zM62.5 9.5a.8.8 0 00-1 .8c0 .8.5 1.2 1 1.2a1 1 0 001-1 .9.9 0 00-1-1zM37.5 9.5a.9.9 0 00-1 1 .9.9 0 001 1c.5 0 1-.3 1-1.2a.9.9 0 00-1-.8zM75 9.5a.9.9 0 00-1 1 .9.9 0 001 1c.6 0 1-.4 1-1.3a.8.8 0 00-1-.7zM8.2 9.4a1 1 0 00-1 1 .9.9 0 001 1 .9.9 0 001-1c0-.6-.4-.9-1-1zM87.6 11.4c.5 0 1-.3.9-1.2a.9.9 0 00-1-.7.9.9 0 00-1 1 .9.9 0 001 1zM50 9.5a.9.9 0 00-1 1 .9.9 0 001 1c.6 0 1-.4 1-1.3a.8.8 0 00-1-.7zM20.7 9.5c-.6 0-1 .3-1 .7 0 .9.4 1.2 1 1.2a.9.9 0 001-1 .9.9 0 00-1-1zM104.3 9.5a.9.9 0 00-1 1 .9.9 0 001 1c.5 0 1-.4 1-1.2a.8.8 0 00-1-.8zM70.9 9.4a1 1 0 00-1 1 1.1 1.1 0 001 1 1 1 0 001-1 1.1 1.1 0 00-1-1zM4 9.5a1 1 0 00-1 1 1 1 0 001 1 1 1 0 001-1 1.1 1.1 0 00-1-1zM58.3 9.5a1 1 0 00-1 1 1 1 0 001 1 1 1 0 001-1 1 1 0 00-1-1zM-.1 9.5a1 1 0 00-1 1 1 1 0 00.9 1 1 1 0 001-1 1 1 0 00-1-1zM96 9.5a1 1 0 00-1 .9 1 1 0 00.9 1 1 1 0 001-.8 1 1 0 00-.9-1.1zM41.6 9.4a1.1 1.1 0 00-1 1 1 1 0 001 1 1.1 1.1 0 001-1 1 1 0 00-1-1zM91.7 9.5a1 1 0 00-1 1 1 1 0 001 1 1.1 1.1 0 001-1 1 1 0 00-1-1zM83.5 9.5a1 1 0 00-1.1.9 1 1 0 001 1 1 1 0 001-.8 1 1 0 00-1-1.1zM79.2 9.5a1 1 0 00-1 1 1 1 0 001 1 1.1 1.1 0 001-1 1 1 0 00-1-1zM54.2 9.5a1 1 0 00-1 1 1 1 0 001 1 1.1 1.1 0 001-1 1 1 0 00-1-1zM45.8 9.4a1 1 0 00-1 1c0 .5.6 1.1 1 1a1 1 0 001-1 1.1 1.1 0 00-1-1zM29 9.5a1 1 0 00-1 1 1.1 1.1 0 001 1 1 1 0 001-1 1 1 0 00-1-1zM24.9 9.5a1 1 0 00-1 1 1 1 0 001 1 1.1 1.1 0 001-1 1 1 0 00-1-1zM16.5 9.5a1 1 0 00-1 1 1 1 0 001 1 1 1 0 001-1 1 1 0 00-1-1zM12.4 9.5a1 1 0 00-1 1 1 1 0 001 1 1.1 1.1 0 001-1 1 1 0 00-1-1zM66.7 9.5a1 1 0 00-1 1 1 1 0 001 1 1 1 0 001-1 1 1 0 00-1-1zM108.5 9.5a1 1 0 00-1 1 1 1 0 001 1 1 1 0 001-1 1 1 0 00-1-1zM112.7 9.4a1 1 0 00-1 1 1.1 1.1 0 001 1 1 1 0 001-.9 1.1 1.1 0 00-1-1zM106.5 11.5a1 1 0 10.9 1.1 1 1 0 00-1-1zM110.5 7.4a.8.8 0 00-.9 1 .8.8 0 001 1 .9.9 0 001-1 .9.9 0 00-1-1zM93.8 7.4a.8.8 0 00-1 .9.8.8 0 001 1 .9.9 0 001-1c0-.6-.3-.9-1-.9zM81.2 7.4a.9.9 0 00-.9 1 1 1 0 002 0c0-.7-.4-1-1.1-1zM68.8 7.4c-.6 0-1 .3-1 1a.8.8 0 00.9 1 .9.9 0 001-1 .9.9 0 00-.9-1zM2 7.4a.9.9 0 00-1 1 .8.8 0 00.9 1 .9.9 0 001-1 .9.9 0 00-1-1zM14.4 7.4a.8.8 0 00-1 1 .8.8 0 001 1c.7 0 1-.4 1-1.1a.9.9 0 00-1-.9zM27 7.4a.8.8 0 00-1 1 .8.8 0 001 1 .9.9 0 001-1 .9.9 0 00-1-1zM43.8 7.4a.8.8 0 00-1 1 1 1 0 101.9 0 .8.8 0 00-1-1zM56.2 7.4a.8.8 0 00-1 1 .9.9 0 001 1c.7 0 1-.4 1-1.1a.9.9 0 00-1-.9zM60.4 11.6a1 1 0 100 1.9 1 1 0 001-.8 1 1 0 00-1-1.1zM47.9 11.6a1 1 0 00-1 1 1 1 0 001.1.9 1 1 0 00.9-1 1 1 0 00-1-1zM39.5 11.6a1 1 0 00-1 1 1 1 0 001 .9 1 1 0 001-1 1 1 0 00-1-1zM35.4 11.6a1 1 0 100 1.9 1 1 0 001-.9c0-.5-.6-1-1-1zM31.1 11.6a1 1 0 00-1 1 1 1 0 001 .9 1 1 0 001-1 1.1 1.1 0 00-1-1zM6.1 11.6a1 1 0 000 1.9 1 1 0 001-.8c0-.6-.5-1.2-1-1.1zM22.8 11.6a1 1 0 00-1 1 1 1 0 00.9.9 1 1 0 001-1 1 1 0 00-.9-1zM18.6 11.6a1 1 0 100 1.9 1 1 0 001-.8 1 1 0 00-1-1.1zM10.3 11.6a1 1 0 00-1 1 1 1 0 00.9.9 1 1 0 001-.8c0-.8-.4-1-1-1.1zM52 11.6a1 1 0 00-1 1 1 1 0 001 .9 1 1 0 001-1 1 1 0 00-1-1zM85.5 11.6a1 1 0 00-1 1 1 1 0 001 .9 1 1 0 001-1 1.1 1.1 0 00-1-1zM77 11.6a1 1 0 00-.8 1 .9.9 0 00.8 1 1 1 0 001.1-1 1 1 0 00-1-1zM73 11.6a1 1 0 00-1 1 1 1 0 001 .9 1 1 0 00.9-1 1.1 1.1 0 00-1-1zM89.5 11.6a1 1 0 00-.8 1 1 1 0 00.9.9 1 1 0 001-1 1 1 0 00-1-1zM98 11.6a1 1 0 00-1 1 1 1 0 001 .9 1 1 0 001-1 1.1 1.1 0 00-1-1zM102.3 11.6a1 1 0 00-1 1c0 .4.5 1 1 1a1 1 0 00.9-1 1 1 0 00-1-1zM64.6 11.6a1 1 0 00-1 1 1 1 0 00.9 1c.5 0 1.1-.5 1-1a1 1 0 00-1-1zM114.7 11.6a1 1 0 00-1 1 1 1 0 001 .9 1 1 0 001-1 1 1 0 00-1-1zM14.4 11.6a.9.9 0 00-.9 1 1 1 0 001 1 1 1 0 001-1.2.9.9 0 00-1-.8zM27 11.6a.9.9 0 00-1 1 1 1 0 001 1 1 1 0 00.9-1.2.9.9 0 00-1-.8zM43.7 11.6c-.5 0-1 .3-1 1a1 1 0 001 1 1 1 0 001-1 1 1 0 00-1-1zM56.3 11.6a.9.9 0 00-1 .9 1 1 0 001 1 1 1 0 00.8-1 .9.9 0 00-.8-1zM68.8 11.6a.9.9 0 00-1 .8 1 1 0 001 1.1 1 1 0 00.9-1 .9.9 0 00-1-1zM81.4 11.6a.9.9 0 00-1 .8 1 1 0 00.9 1.1 1 1 0 001-.8.9.9 0 00-.9-1.1zM2 11.6a.9.9 0 00-1 .9 1 1 0 101.8 0 .9.9 0 00-.9-1zM93.8 11.6a.9.9 0 00-1 .9 1 1 0 001 1 1 1 0 001-1 .9.9 0 00-1-1zM110.6 11.6a.9.9 0 00-1 .8c0 .6.4 1.1 1 1.1a1 1 0 00.9-1 .9.9 0 00-.9-1zM33.4 13.7a1 1 0 00-1.1.9.9.9 0 00.9 1 .9.9 0 001-1 .9.9 0 00-.8-1zM79.2 13.7c-.6 0-.9.4-.9 1a1 1 0 10.9-1zM112.7 13.7a1 1 0 00-1 1 1 1 0 001 .9.8.8 0 00.9-1 .9.9 0 00-.9-1zM70.8 13.7a1 1 0 100 1.9c.6 0 .9-.4 1-1s-.4-1-1-.9zM83.3 13.7a1 1 0 100 1.9c.6 0 .9-.4 1-1s-.4-1-1-.9zM91.8 13.7c-.6 0-1 .3-1 1s.3.8.9.8a1 1 0 100-1.8zM96 13.7a1 1 0 10-.1 1.9c.5 0 .8-.4 1-1s-.4-.9-1-.9zM100.2 13.7a1 1 0 00-1 1 1 1 0 001 1 .9.9 0 00.8-1 .9.9 0 00-.8-1zM66.6 13.7a.8.8 0 00-.8 1 .9.9 0 00.9.9 1 1 0 001-1 1 1 0 00-1-.9zM108.5 13.7c-.6 0-.9.4-1 1s.4.9 1 .9a1 1 0 100-1.9zM-.1 13.7c-.6 0-1 .3-1 .9s.4 1 1 1a.9.9 0 001-1 .9.9 0 00-1-.9zM4 13.7a1 1 0 00-1 1 1 1 0 001 .9.9.9 0 00.8-1 .9.9 0 00-.8-1zM12.3 13.7c-.5 0-.8.4-.9 1s.4 1 1 .9a1 1 0 100-1.9zM16.5 13.7a1 1 0 00-1 1 1 1 0 001 .9.8.8 0 00.9-1 .9.9 0 00-.9-1zM24.9 13.7c-.6 0-.9.4-1 1a1 1 0 101-1zM29 13.7a1 1 0 100 1.9c.6 0 1-.4 1-1s-.4-.9-1-.9zM41.6 13.7a.9.9 0 00-.9.9.9.9 0 00.9 1 1 1 0 001-1 1 1 0 00-1-1zM45.8 13.7a1 1 0 00-1 1 1 1 0 001 .9.8.8 0 00.8-1 .9.9 0 00-.8-1zM54.1 13.7c-.5 0-.8.4-.9 1a1 1 0 101-1zM58.3 13.7a1 1 0 100 1.9c.6 0 .9-.4 1-1s-.4-1-1-.9zM104.3 13.7a.9.9 0 00-1 1 .9.9 0 001 .8c.6 0 .9-.4 1-1-.2-.4-.5-.8-1-.8zM8.2 13.7a1 1 0 000 1.8c.5 0 .8-.3.9-.9-.1-.5-.4-1-1-.9zM37.4 13.7a.9.9 0 00-.9.9.8.8 0 001 1c.5 0 .8-.4 1-1a1 1 0 00-1-.9zM62.5 13.7a.9.9 0 00-1 1c0 .5.5.8 1 .9a1 1 0 001-1 .9.9 0 00-1-.9zM87.5 13.7a.9.9 0 00-.9.9.8.8 0 001 1c.5 0 .8-.4 1-1-.2-.5-.5-1-1-.9zM50 13.7a1 1 0 00-1 1 1 1 0 001.9 0c0-.6-.3-1-.9-1zM20.6 13.7a.9.9 0 00-.8 1 .9.9 0 001 .8c.5 0 .8-.4.8-1a1 1 0 00-1-.8zM75 13.7c-.5.1-.9.4-.9 1a1 1 0 001.9 0c0-.6-.4-1-1-1zM6.1 15.8a.8.8 0 00-.9.8.9.9 0 00.7 1c.8 0 1.1-.3 1.1-.9a.8.8 0 00-.9-.9zM10.3 15.8a1 1 0 00-1 1c.1.4.3.8 1.1.8a.8.8 0 00.7-.9c0-.6-.3-.8-.8-.9zM18.6 15.8a.8.8 0 00-.9.9.8.8 0 00.8.9c.8 0 1-.4 1-1a.9.9 0 00-.9-.8zM22.8 15.8a1 1 0 00-1 1c.1.4.3.8 1 .8a.8.8 0 00.9-.7c0-.8-.4-1-.9-1.1zM77.1 15.8a1 1 0 00-.9 1c0 .4.3.8.9.8a.8.8 0 00.9-.7c0-.8-.4-1-.9-1.1zM31.1 15.8c-.5 0-.9.3-.9.9s.4.9.8.9c.8 0 1-.4 1-.9a1 1 0 00-.9-1zM35.4 15.8a.8.8 0 00-1 .8.8.8 0 00.8 1c.8 0 1-.4 1-1a.8.8 0 00-.8-.8zM39.5 15.8a.9.9 0 00-.9 1c0 .4.3.8.9.8a.9.9 0 001-.7c0-.8-.5-1.1-1-1.1zM85.5 15.8c-.5 0-1 .3-1 .9s.4.9.8.9c.8 0 1-.4 1-.9a1 1 0 00-.8-1zM48 15.8c-.6 0-1 .3-1 1a.8.8 0 00.8.8 1 1 0 10.1-1.8zM52 15.8a.8.8 0 00-.9.9.8.8 0 00.9 1 .8.8 0 00.9-.8c.1-.8-.3-1-.9-1.1zM89.6 15.8a1 1 0 00-.9 1c.1.4.3.8 1 .8a.8.8 0 00.8-.7 1 1 0 00-.9-1.1zM60.5 15.8a.8.8 0 00-1 .9.8.8 0 00.8.9c.8 0 1-.4 1-.9a.8.8 0 00-.8-.9zM64.6 15.8a1 1 0 00-1 1c.1.4.4.8 1 .8a.8.8 0 00.9-.7c0-.8-.4-1-.9-1.1zM98 15.8a.8.8 0 00-.9.8.8.8 0 00.7 1c.8 0 1-.3 1.1-.9a.9.9 0 00-.9-.9zM73 15.8c-.5 0-1 .3-.9.9a.8.8 0 00.8.9c.8 0 1-.4 1-1a.8.8 0 00-.9-.8zM102.3 15.8c-.6 0-1 .3-1 1a.8.8 0 00.8.8c.8 0 1-.4 1-.9a.8.8 0 00-.8-.9zM106.4 15.8a1 1 0 00-1 1c0 .4.3.8.9.8a1 1 0 001-.9c0-.6-.4-.8-.9-.9zM114.8 15.8a.8.8 0 00-1 .9.9.9 0 00.8.9c.8 0 1-.4 1-1a.9.9 0 00-.8-.8zM27 15.8a.9.9 0 00-1 .9c0 .5.4 1 1 1a.8.8 0 00.9-1 .9.9 0 00-.9-.9zM43.7 15.8a.9.9 0 00-.9.9.8.8 0 00.8 1 .9.9 0 001-1 .9.9 0 00-.9-.9zM56.3 15.8a.9.9 0 10.9 1 .9.9 0 00-1-1zM68.8 15.8a.9.9 0 10.9 1 .9.9 0 00-1-1zM14.5 15.8a.9.9 0 00-1 .9.8.8 0 00.9 1 .9.9 0 001-1 .9.9 0 00-1-.9zM2 15.8a.9.9 0 100 1.8.9.9 0 000-1.8zM81.3 15.8a.9.9 0 00-1 .9.8.8 0 001 1 .9.9 0 100-1.9zM110.6 15.8a1 1 0 00-.2 1.8c.7 0 1-.3 1-.9a.9.9 0 00-.8-.9zM93.8 15.8a.9.9 0 00-.9.9.9.9 0 001 1 .9.9 0 000-1.9zM33.2 18a.9.9 0 100 1.7c.6 0 1-.3 1-.9a.8.8 0 00-1-.9zM100 18a.9.9 0 100 1.7c.6 0 1-.3 1-.9a.8.8 0 00-1-.9zM8.2 18a.8.8 0 00-1 .8c0 .5.4.8 1 .9s.9-.3.9-.9a.8.8 0 00-.9-.9zM20.7 18a.8.8 0 00-.9.8c0 .5.3.8.9.9s1-.3.9-.9a.8.8 0 00-.9-.9zM37.4 18a.8.8 0 00-.8.8c0 .6.4.9 1 .9s.8-.4.8-.9a.8.8 0 00-1-.9zM50 18a.9.9 0 00-.9.9.8.8 0 00.9.8.8.8 0 001-.9.9.9 0 00-1-.9zM62.5 18a.8.8 0 00-.9.8c0 .6.4.8 1 .9s.8-.3.8-.9a.9.9 0 00-1-.9zM75 18a.9.9 0 00-.9.9.8.8 0 00.9.8c.6 0 1-.3 1-.9a.9.9 0 00-1-.9zM87.7 18a.9.9 0 00-1 .8.8.8 0 00.8.8.8.8 0 001-.7.8.8 0 00-.8-1zM104.3 18a.8.8 0 00-.9.8.8.8 0 001 .9.8.8 0 00.8-.9.9.9 0 00-1-.9zM35.3 20a.9.9 0 000 1.8.8.8 0 001-.8.8.8 0 00-1-1zM41.6 18a.8.8 0 00-.8.8c0 .6.3.9.9.8s.8-.3.8-.8-.3-.9-.9-.9zM45.7 19.7c.6 0 1-.3 1-.9a.8.8 0 00-.8-.9.8.8 0 00-.9 1 .7.7 0 00.7.8zM12.4 18a.8.8 0 00-1 .8.8.8 0 001 .9c.5 0 .8-.3.8-.8s-.3-.9-.8-1zM54.2 18a.8.8 0 00-1 .8.8.8 0 001 .9.8.8 0 00.8-.8.8.8 0 00-.8-1zM58.3 18a.8.8 0 00-.8.8c0 .6.3.8.9.9a.8.8 0 00.8-.9.8.8 0 00-.9-.9zM16.5 19.7c.6 0 1-.3.9-.9a.8.8 0 00-.9-.9.8.8 0 00-.8 1c0 .5.3.7.8.8zM66.7 18a.8.8 0 00-.9.8.8.8 0 00.9.8.7.7 0 00.8-.7c0-.6-.2-.9-.8-1zM70.9 18a.8.8 0 00-.9.8.7.7 0 00.8.9c.5 0 1-.3 1-.9a.8.8 0 00-1-.9zM-.2 18a.8.8 0 00-.8.8.8.8 0 00.9.8c.5 0 .8-.3.8-.8a.8.8 0 00-.9-.9zM79.2 18a.8.8 0 00-.9.8c0 .6.4.8 1 .9a.7.7 0 00.8-.9.8.8 0 00-.9-.9zM83.4 19.7a.8.8 0 00.9-1 .8.8 0 00-1-.8.8.8 0 00-.8 1c0 .5.4.8.9.8zM24.9 18a.8.8 0 00-.9.8c0 .6.3.8.9.8a.7.7 0 00.8-.7c0-.6-.3-1-.8-1zM91.7 18a.8.8 0 00-.8.8c0 .6.3.8 1 .9a.7.7 0 00.7-.9.8.8 0 00-.9-.9zM95.9 18a.8.8 0 00-.8.9c0 .5.3.8.8.8a.8.8 0 00.9-1 .8.8 0 00-1-.8zM29 19.7a.8.8 0 00.9-.9.8.8 0 00-.9-.9.8.8 0 00-.8 1c0 .5.3.7.8.8zM4 19.7a.8.8 0 00.8-.9.8.8 0 00-.8-.9c-.6 0-.8.4-.8 1s.2.7.8.8zM108.5 18a.8.8 0 00-.9.8.8.8 0 001 .8c.5 0 .7-.2.7-.8a.8.8 0 00-.8-.9zM112.6 18c-.5 0-.8.3-.8.8a.7.7 0 00.9.9c.5 0 .8-.3.8-.9a.8.8 0 00-.9-.9zM6 20a.9.9 0 000 1.8.8.8 0 00.9-1A.8.8 0 006 20zM10.3 20a.8.8 0 00-.9.8.8.8 0 00.9 1 .8.8 0 00.8-.8.8.8 0 00-.8-1zM18.6 20a.9.9 0 000 1.8.8.8 0 00.9-.8.8.8 0 00-1-1zM22.9 20a.8.8 0 00-1 .8.8.8 0 001 1 .9.9 0 000-1.8zM31.1 20a.9.9 0 10.9 1 .8.8 0 00-.9-1zM39.6 20a.8.8 0 00-.9.8.8.8 0 00.9 1 .9.9 0 000-1.8zM47.9 20a.8.8 0 00-.9.9.9.9 0 101.7 0 .8.8 0 00-.9-.9zM52 20c-.4.1-.8.3-.8 1a.8.8 0 101.7 0c0-.6-.3-1-.8-1zM60.4 20a.9.9 0 000 1.8c.5 0 .8-.3.8-1a.8.8 0 00-.8-.8zM64.7 20a.8.8 0 00-1 .8.8.8 0 001 1 .9.9 0 000-1.8zM72.9 20a.8.8 0 00-.8.9.8.8 0 00.8.9.8.8 0 00.9-1 .8.8 0 00-1-.8zM77.1 20c-.5 0-.8.3-.8 1A.9.9 0 0078 21a.8.8 0 00-.9-.9zM85.4 20a.9.9 0 000 1.8.8.8 0 00.9-1 .8.8 0 00-.9-.8zM89.7 20a.8.8 0 00-.9 1 .8.8 0 101.7-.1.8.8 0 00-.8-.9zM98 20a.8.8 0 00-.9 1 .8.8 0 00.9.8.8.8 0 00.8-1 .8.8 0 00-.8-.8zM102.2 20a.9.9 0 10.9 1 .8.8 0 00-1-1zM106.4 20c-.4.1-.8.3-.8.8a.8.8 0 00.8 1 .8.8 0 00.9-.9 1 1 0 00-.9-.9zM114.7 20a.9.9 0 10.9 1c0-.7-.4-1-.9-1zM100.1 22.2c-.6 0-.8.2-.8.9a.8.8 0 00.8.7.8.8 0 00.9-.8.8.8 0 00-.9-.8zM33.3 22.2c-.6 0-.8.2-.9.9a.8.8 0 00.8.7.8.8 0 001-.8.8.8 0 00-1-.8zM29 22.2a.8.8 0 000 1.6c.5 0 .8-.3 1-.9a.9.9 0 00-1-.7zM16.5 22.2a.8.8 0 00-.8.8.8.8 0 00.8.8c.5 0 .8-.3 1-.9a.9.9 0 00-1-.7zM24.8 22.1c-.4.1-.8.4-.8 1a.8.8 0 00.9.7.8.8 0 00.8-.8c0-.6-.3-.8-.9-.9zM54.2 22.2a.8.8 0 00-.9.8.8.8 0 00.8.8c.6 0 .8-.3.9-.7s-.3-1-.8-1zM4 22.2a.8.8 0 00-.8.8.8.8 0 00.7.8c.6 0 .9-.3 1-.8a.9.9 0 00-.9-.8zM108.5 22.2a.8.8 0 00-.9.8.8.8 0 00.9.8c.5 0 .7-.3.8-.7s-.3-1-.8-1zM91.8 22.2a.8.8 0 00-1 .8.8.8 0 001 .8c.4 0 .7-.3.8-.7s-.3-1-.8-1zM112.7 22.1c-.5 0-.8.3-.9.9a.8.8 0 00.8.8.8.8 0 001-.8c0-.5-.4-.8-.9-.9zM-.2 22.1c-.5.1-.8.4-.8.9a.8.8 0 00.8.8.8.8 0 00.9-.8c0-.5-.3-.8-.9-.9zM95.9 22.1c-.5.1-.9.4-.8 1a.8.8 0 00.9.7.8.8 0 00-.1-1.7zM12.4 22.2a.8.8 0 00-.9.8.8.8 0 00.8.8c.5 0 .8-.3.9-.7s-.3-1-.8-1zM41.6 22.1c-.5.1-.9.4-.8 1a.8.8 0 00.9.7.8.8 0 00.7-.8c0-.6-.3-.8-.8-.9zM70.9 22.1c-.6.1-.9.4-.9.9a.8.8 0 00.9.8.8.8 0 00.8-.8c0-.5-.4-.8-.8-.9zM83.4 22.2a.8.8 0 00-.8.8.8.8 0 00.7.8c.5 0 .8-.3 1-.8a.8.8 0 00-.9-.8zM45.8 22.2a.8.8 0 00-.8.8.8.8 0 00.8.8c.5 0 .8-.3 1-.8a.9.9 0 00-1-.8zM79.2 22.2a.8.8 0 00-.8.8.8.8 0 00.8.8c.5 0 .7-.3.8-.7s-.2-1-.8-1zM66.7 22.2a.8.8 0 00-.9.8.8.8 0 00.9.8c.5 0 .7-.3.8-.7s-.3-1-.8-1zM58.4 22.2a.8.8 0 00-.9.8.9.9 0 00.8.9c.6-.1 1-.4.9-1a.8.8 0 00-.9-.7zM8.2 22.2c-.5 0-.8.2-.8 1A.8.8 0 009 23a.7.7 0 00-.8-.8zM104.3 22.2a.7.7 0 00-.8.8.8.8 0 00.8.8c.5 0 .8-.3.8-.8a.7.7 0 00-.8-.8zM87.5 22.2a.7.7 0 00-.7.8c0 .5.3.9.8.8a.8.8 0 00.8-.7c0-.7-.4-1-.9-1zM20.7 22.2a.7.7 0 00-.8.8.8.8 0 00.8.8.8.8 0 00.8-.8.7.7 0 00-.8-.8zM62.5 22.2a.7.7 0 00-.8.8.8.8 0 00.8.8.8.8 0 00.8-.8.7.7 0 00-.8-.8zM75 22.2a.7.7 0 00-.8.8c0 .5.4.9.9.8a.8.8 0 00.7-.9.7.7 0 00-.8-.7zM50 22.2a.7.7 0 00-.8.8.8.8 0 00.7.8c.5 0 .8-.3.8-.8a.7.7 0 00-.7-.8zM37.5 22.2c-.5 0-.8.2-.8 1a.8.8 0 00.7.6c.5 0 .8-.3.9-.8a.7.7 0 00-.8-.8zM2 20.1a.7.7 0 00-.9.8c0 .5.3.8.9.8a.8.8 0 000-1.6zM14.4 20.1a.7.7 0 00-.8.8c0 .5.3.8.8.8a.7.7 0 00.8-.8c0-.5-.2-.8-.8-.8zM43.7 20.1a.7.7 0 00-.8.8.7.7 0 00.8.8c.6 0 .8-.3.8-.9s-.3-.7-.8-.7zM56.4 20.1c-.6 0-1 .2-1 .7s.2.9.7.9 1-.2 1-.8-.2-.8-.8-.8zM68.8 20.1a.7.7 0 00-.8.7c0 .6.2.9.7.9a.7.7 0 00.9-.7c0-.6-.3-.9-.8-.9zM81.3 20.1c-.5 0-.8.2-.8.8a.7.7 0 00.7.8c.5 0 .9-.2.9-.8s-.2-.8-.8-.8zM27 20.1a.7.7 0 00-.8.8c0 .5.2.8.8.8a.8.8 0 100-1.6zM110.7 20.1c-.5 0-.9.2-1 .7s.3.9.8.9.8-.2.9-.8-.2-.8-.7-.8zM93.8 20.1a.7.7 0 00-.8.8c0 .5.3.8.9.8a.7.7 0 00.7-.8.7.7 0 00-.8-.8zM52 24.3a.8.8 0 000 1.6.8.8 0 00.9-.8 1 1 0 00-.9-.8zM98 24.3a.8.8 0 00-.8.8c0 .5.3.7.8.8a.8.8 0 00.8-.8.8.8 0 00-.7-.8zM60.5 24.3a.8.8 0 00-.9.8c0 .5.4.7.8.8a.8.8 0 00.8-.8.8.8 0 00-.7-.8zM64.5 24.3a.8.8 0 00.1 1.6.8.8 0 00.8-.8c0-.5-.4-.8-.9-.8zM102.3 24.3a.8.8 0 00-.9.8.8.8 0 00.8.8.8.8 0 00.8-.8c0-.5-.2-.8-.7-.8zM73 24.3a.8.8 0 00-.8.8.8.8 0 00.8.8.8.8 0 00.8-.8c-.1-.5-.3-.8-.8-.8zM77 24.3a.8.8 0 00-.7.8.7.7 0 00.8.8.8.8 0 00.8-.8c0-.5-.3-.8-.8-.8zM106.4 24.3a.8.8 0 00-.8.8.8.8 0 00.8.8.8.8 0 00.8-.8c0-.5-.3-.8-.8-.8zM6.1 24.3a.8.8 0 00-.8.8.8.8 0 00.8.8.8.8 0 00.8-.8c0-.5-.3-.8-.8-.8zM10.2 24.3a.8.8 0 00-.7.8.8.8 0 00.8.8.8.8 0 00.8-.8 1 1 0 00-.9-.8zM85.5 24.3a.8.8 0 00-.8.8c0 .5.3.7.8.8.5-.1.8-.3.8-.8a.8.8 0 00-.8-.8zM18.7 24.3a.8.8 0 00-.9.8c0 .5.4.7.9.8.3 0 .7-.3.7-.8a.8.8 0 00-.7-.8zM22.8 24.3a.8.8 0 000 1.6.8.8 0 00.9-.8 1 1 0 00-1-.8zM89.6 24.3a.8.8 0 00-.8.8c0 .5.4.7.8.8.5 0 .9-.3.9-.8a.8.8 0 00-.9-.8zM31.2 24.3a.8.8 0 00-.9.8c0 .5.4.7 1 .8.3-.1.7-.3.7-.8a.8.8 0 00-.8-.8zM35.4 24.3a.8.8 0 00-.8.8c0 .5.3.7.8.8a.8.8 0 00.8-.8.8.8 0 00-.8-.8zM39.5 24.3a.8.8 0 00-.8.8.8.8 0 00.8.8.8.8 0 00.9-.8c0-.5-.4-.7-.9-.9zM114.8 24.3a.8.8 0 00-.9.8.8.8 0 00.8.8c.5 0 .8-.3.9-.8 0-.4-.3-.8-.8-.8zM48 24.3a.8.8 0 00-1 .8.8.8 0 001 .8.8.8 0 00.7-.8c0-.5-.3-.9-.8-.8zM43.8 24.3a.7.7 0 00-.8.7.7.7 0 00.7.9.7.7 0 00.8-.7.8.8 0 00-.7-1zM56.3 24.3a.7.7 0 00-.8.8.7.7 0 00.8.8c.4 0 .7-.3.7-.8a.8.8 0 00-.7-.8zM68.8 24.3a.7.7 0 00-.8.7.8.8 0 10.8-.8zM81.3 24.3a.8.8 0 000 1.6.7.7 0 00.8-.9.7.7 0 00-.8-.7zM93.8 24.3a.8.8 0 000 1.6.8.8 0 000-1.6zM110.6 24.2c-.4.2-.8.3-.8.8a.8.8 0 00.7.9.7.7 0 00.8-.8c0-.5-.3-.7-.7-.9zM2 24.2c-.5.2-.9.3-.9.8a.7.7 0 00.7.9.7.7 0 00.9-.8c0-.5-.3-.7-.8-.9zM14.4 24.3a.7.7 0 00-.7.8.8.8 0 00.8.8c.5 0 .7-.4.7-.8a.8.8 0 00-.8-.8zM27 24.3a.7.7 0 00-.8.8.8.8 0 101.5 0 .7.7 0 00-.8-.8zM100.2 26.4a.7.7 0 00-.9.7.7.7 0 00.8.8.7.7 0 00.8-.7c0-.5-.2-.8-.8-.8zM33.3 26.4a.7.7 0 00-.8.8.7.7 0 00.7.7.7.7 0 00.8-.7c0-.5-.2-.8-.7-.8zM91.7 26.4c-.5 0-.7.3-.7.8s.2.7.7.7a.7.7 0 00.8-.7.8.8 0 00-.8-.8zM54.2 26.4c-.5 0-.8.3-.8.8s.3.7.7.7a.8.8 0 100-1.5zM58.4 26.4a.8.8 0 00-.9.8.7.7 0 00.8.7c.5 0 .8-.3.8-.7s-.3-.8-.7-.8zM96 26.4a.8.8 0 00-.8.8.7.7 0 00.8.7c.5 0 .7-.3.7-.7s-.3-.8-.7-.8zM66.6 26.4c-.4 0-.6.3-.7.8a.7.7 0 00.7.7.8.8 0 100-1.5zM70.9 26.4a.8.8 0 00-.8.7.8.8 0 00.7.8c.6 0 .8-.2.8-.7s-.2-.8-.7-.8zM-.2 26.4c-.5 0-.7.3-.7.8s.2.7.7.7a.8.8 0 00.8-.7.8.8 0 00-.8-.8zM4 26.4a.8.8 0 00-.8.8.8.8 0 00.8.7c.5 0 .7-.3.7-.7s-.2-.8-.7-.8zM112.7 26.4a.8.8 0 100 1.5c.5 0 .7-.3.7-.7s-.2-.8-.7-.8zM12.3 26.4c-.5 0-.7.3-.7.8s.2.8.8.7a.8.8 0 00.7-.7.8.8 0 00-.8-.8zM16.6 26.4a.8.8 0 00-.9.7.7.7 0 00.8.8c.5 0 .8-.2.8-.8a.7.7 0 00-.7-.7zM79.2 26.4c-.5 0-.7.3-.7.9a.7.7 0 00.7.6.8.8 0 100-1.5zM24.9 26.4c-.5 0-.7.3-.8.9a.7.7 0 00.7.6.8.8 0 100-1.5zM29 26.4a.8.8 0 100 1.5c.5 0 .7-.3.8-.7s-.2-.8-.8-.8zM83.4 26.4a.8.8 0 00-.8.7.8.8 0 00.8.8c.5 0 .7-.3.7-.7a.7.7 0 00-.7-.8zM108.5 26.4c-.5 0-.8.3-.8.8s.3.7.7.7a.8.8 0 100-1.5zM41.6 26.4c-.5 0-.7.3-.7.8s.2.8.7.7a.8.8 0 100-1.5zM45.8 26.4a.8.8 0 100 1.5c.5 0 .7-.3.7-.8a.7.7 0 00-.7-.7zM20.7 26.4a.7.7 0 00-.8.7.8.8 0 101.6.1.7.7 0 00-.8-.8zM8.2 26.4a.7.7 0 00-.8.8c0 .4.3.7.8.8a.8.8 0 00.7-.8.7.7 0 00-.7-.8zM104.3 26.4a.7.7 0 00-.7.8.8.8 0 00.7.8c.5-.1.8-.4.8-.8a.7.7 0 00-.8-.8zM37.5 26.4a.8.8 0 00-.8.7.7.7 0 00.8.8.7.7 0 00.7-.7.8.8 0 00-.8-.8zM50 26.4a.7.7 0 00-.8.7.8.8 0 00.8.9c.5 0 .8-.3.8-.7a.7.7 0 00-.8-.9zM62.5 26.4a.8.8 0 00-.8.7.7.7 0 00.8.8.7.7 0 00.8-.7.8.8 0 00-.8-.8zM75 26.4a.7.7 0 00-.8.8.8.8 0 101.6 0 .7.7 0 00-.8-.8zM87.6 26.4a.8.8 0 100 1.5.8.8 0 00.7-.8.8.8 0 00-.7-.7zM56.3 28.5a.7.7 0 00-.8.7c0 .5.2.8.6.8.7 0 .9-.3.9-.7a.7.7 0 00-.8-.8zM68.7 28.5a.7.7 0 00-.7.8c0 .4.3.7.6.7.7 0 1-.3 1-.8a.7.7 0 00-.9-.7zM81.3 28.5a.8.8 0 100 1.5.7.7 0 00.7-.7.7.7 0 00-.7-.8zM93.8 28.5a.7.7 0 00-.7.8c0 .4.2.7.7.7a.7.7 0 00.8-.8.7.7 0 00-.8-.7zM110.6 28.5a.7.7 0 00-.8.7c0 .5.3.8.7.8a.7.7 0 00.8-.8.7.7 0 00-.7-.7zM1.9 28.5a.7.7 0 00-.7.8c0 .4.2.7.5.7.7 0 1-.3 1-.8a.7.7 0 00-.8-.7zM14.4 28.5a.8.8 0 000 1.5.8.8 0 100-1.5zM27 28.5a.8.8 0 100 1.5c.5 0 .7-.3.7-.7a.7.7 0 00-.7-.8zM43.8 28.5a.8.8 0 100 1.5c.4 0 .6-.3.7-.7a.7.7 0 00-.8-.8zM33.3 30.6a.7.7 0 00-.8.7.7.7 0 00.7.7c.5 0 .8-.2.8-.6a.6.6 0 00-.7-.8zM100.2 30.6a.7.7 0 00-.8.7.6.6 0 00.7.7c.4 0 .7-.1.7-.6a.6.6 0 00-.6-.8zM89.6 28.6a.6.6 0 00-.6.6c0 .5.2.8.6.8a.7.7 0 00.8-.7c0-.5-.3-.7-.8-.7zM98 28.6c-.4 0-.7.1-.7.6a.7.7 0 00.7.8c.5 0 .7-.3.7-.7s-.2-.7-.6-.7zM102.2 28.6c-.4 0-.7.2-.7.7a.7.7 0 00.8.7c.4 0 .6-.3.6-.8s-.3-.6-.7-.6zM106.3 28.6c-.4 0-.6.2-.6.7s.2.7.7.7a.6.6 0 00.7-.7c0-.5-.3-.7-.8-.7zM114.8 28.6c-.5 0-.8.2-.8.6a.7.7 0 00.7.8c.5 0 .7-.3.7-.8s-.2-.6-.6-.6zM6.1 28.6c-.4 0-.7.2-.7.7a.6.6 0 00.7.7c.5 0 .7-.3.7-.8s-.2-.6-.7-.6zM10.2 30a.7.7 0 00.8-.7.7.7 0 00-.7-.7c-.5 0-.7.1-.7.6s.2.8.6.8zM18.7 28.6c-.5 0-.8.1-.8.6a.7.7 0 00.7.8c.5 0 .7-.3.7-.7s-.2-.7-.6-.7zM22.8 30a.6.6 0 00.7-.7c0-.5-.3-.7-.7-.7s-.7.2-.7.6.2.8.7.8zM31.1 28.6a.7.7 0 00-.7.7.7.7 0 00.8.7c.5 0 .6-.3.6-.8s-.2-.6-.7-.6zM35.4 28.6c-.4 0-.7.1-.8.6a.7.7 0 00.7.8c.5 0 .7-.3.8-.7s-.2-.7-.7-.7zM39.5 28.6c-.4 0-.6.1-.6.6s.2.8.6.8a.7.7 0 00.8-.7c0-.5-.3-.7-.8-.7zM48 28.6c-.5 0-.8.2-.8.6a.7.7 0 00.7.8c.4 0 .7-.3.7-.8s-.2-.6-.7-.6zM52 28.6a.6.6 0 00-.7.6c0 .5.3.8.8.8a.6.6 0 00.7-.7c0-.5-.3-.7-.8-.7zM60.5 28.6c-.5 0-.8.2-.8.6a.6.6 0 00.7.8c.5 0 .7-.3.7-.8s-.2-.6-.6-.6zM64.6 28.6c-.4 0-.7.1-.7.6s.2.8.7.8a.7.7 0 00.7-.7c0-.5-.3-.7-.7-.7zM73 28.6c-.5 0-.8.2-.8.7a.7.7 0 00.8.7c.5 0 .7-.3.7-.8s-.3-.6-.8-.6zM77.1 28.6a.6.6 0 00-.7.6c0 .5.2.8.7.8a.6.6 0 00.7-.7c0-.5-.2-.7-.7-.7zM85.5 28.6c-.5 0-.8.2-.8.7a.6.6 0 00.8.7c.5 0 .7-.3.7-.8a.6.6 0 00-.7-.6zM104.3 30.6a.7.7 0 00-.7.7.7.7 0 00.7.7.6.6 0 00.7-.6.7.7 0 00-.7-.8zM37.5 30.6a.7.7 0 00-.8.8.6.6 0 00.7.6.7.7 0 00.8-.7.7.7 0 00-.7-.7zM8.2 30.6a.7.7 0 00-.7.7.7.7 0 00.7.7.6.6 0 00.7-.7.7.7 0 00-.7-.7zM87.6 30.6a.7.7 0 00-.8.8.6.6 0 00.7.6.7.7 0 00.8-.7.7.7 0 00-.7-.7zM62.5 30.6a.7.7 0 00-.7.7.7.7 0 00.7.7.6.6 0 00.7-.6.7.7 0 00-.7-.8zM20.7 30.6a.7.7 0 00-.7.8.6.6 0 00.7.6.6.6 0 00.7-.7.7.7 0 00-.7-.7zM50 30.6a.7.7 0 00-.7.8.6.6 0 00.7.6.6.6 0 00.7-.7.7.7 0 00-.7-.7zM75 30.6a.7.7 0 00-.7.7.7.7 0 00.7.7.6.6 0 00.8-.6.7.7 0 00-.8-.8zM43.7 32.8a.7.7 0 00-.7.7.7.7 0 00.7.7c.4-.1.7-.3.7-.7a.7.7 0 00-.7-.8zM27 32.8a.7.7 0 100 1.4.7.7 0 00.7-.8c0-.4-.3-.7-.7-.6zM14.5 32.7a.7.7 0 100 1.4c.4 0 .6-.2.7-.7a.8.8 0 00-.7-.7zM2 32.7a.7.7 0 00-.8.7.7.7 0 00.6.7.7.7 0 00.8-.6c0-.4-.3-.7-.7-.8zM56.3 32.7a.7.7 0 100 1.4c.4 0 .6-.2.7-.7a.7.7 0 00-.7-.7zM68.7 32.8a.7.7 0 00-.6.7.7.7 0 00.7.7c.4-.1.7-.3.7-.7a.7.7 0 00-.8-.8zM81.3 32.7a.7.7 0 100 1.4c.4 0 .6-.3.7-.7a.7.7 0 00-.7-.7zM93.8 32.7a.7.7 0 100 1.4.7.7 0 00.8-.7.8.8 0 00-.8-.7zM110.6 32.7a.7.7 0 100 1.4.7.7 0 00.7-.7.8.8 0 00-.7-.7zM25 30.6a.7.7 0 00-.8.8c0 .4.2.6.6.6s.7-.2.8-.6a.6.6 0 00-.7-.8zM29 30.6a.6.6 0 00-.6.7.6.6 0 00.6.7.7.7 0 00.8-.6c0-.4-.3-.7-.8-.8zM41.6 30.6c-.4.1-.7.3-.7.8a.7.7 0 001.4 0 .7.7 0 00-.6-.8zM45.8 30.6a.6.6 0 00-.7.7.6.6 0 00.7.7.7.7 0 00.7-.6c0-.4-.3-.7-.7-.8zM54.2 30.6a.7.7 0 00-.8.8.6.6 0 00.7.6.6.6 0 00.7-.6c0-.5-.2-.8-.6-.8zM58.3 30.6a.6.6 0 00-.6.8c0 .4.2.6.7.6a.6.6 0 00.6-.7.7.7 0 00-.7-.7zM66.7 30.6a.7.7 0 00-.7.8.6.6 0 00.7.6c.4 0 .6-.2.7-.7a.6.6 0 00-.7-.7zM70.8 30.6a.6.6 0 00-.6.7.6.6 0 00.6.7.7.7 0 00.8-.6c0-.4-.3-.7-.8-.8zM79.2 30.6a.7.7 0 00-.7.8.6.6 0 00.7.6c.4 0 .7-.2.7-.7a.6.6 0 00-.7-.7zM83.3 30.6a.7.7 0 00-.6.8.6.6 0 00.7.6.6.6 0 00.7-.6c0-.5-.3-.7-.8-.8zM91.7 32c.4 0 .7-.2.7-.7a.6.6 0 00-.6-.7.7.7 0 00-.8.7c0 .5.3.7.7.7zM96 30.6a.6.6 0 00-.8.7.6.6 0 00.7.7.7.7 0 00.7-.6c0-.4-.2-.7-.7-.8zM108.5 30.6a.7.7 0 00-.7.8.6.6 0 00.7.6c.5 0 .7-.3.7-.7s-.3-.7-.7-.7zM112.6 30.6a.7.7 0 00-.6.7.6.6 0 00.7.7.6.6 0 00.7-.6.7.7 0 00-.8-.8zM-.1 30.6a.7.7 0 00-.8.8.6.6 0 00.7.6.7.7 0 00.7-.6c0-.5-.2-.8-.6-.8zM4 30.6a.6.6 0 00-.7.7.6.6 0 00.7.7.7.7 0 00.8-.6c-.1-.4-.3-.7-.8-.8zM12.4 30.6a.7.7 0 00-.8.7c0 .5.3.7.7.7s.7-.2.7-.6a.6.6 0 00-.6-.8zM16.5 30.6a.7.7 0 00-.7.8.6.6 0 00.7.6.6.6 0 00.7-.6c0-.5-.3-.7-.7-.8zM100.1 34.9a.6.6 0 00-.6.7c0 .4.2.5.6.6s.7-.3.7-.7a.6.6 0 00-.7-.6zM33.3 34.9a.6.6 0 00-.7.7c0 .4.3.5.6.6s.7-.3.7-.7a.6.6 0 00-.6-.6zM18.7 32.8a.6.6 0 00-.8.6.6.6 0 00.6.7c.4 0 .7-.2.8-.6a.7.7 0 00-.6-.7zM89.6 32.8a.6.6 0 00-.6.7.6.6 0 00.7.6c.4 0 .6-.3.7-.7a.7.7 0 00-.8-.6zM98 32.8a.6.6 0 00-.7.6.7.7 0 001.4 0c0-.4-.3-.6-.8-.6zM102.2 32.8a.6.6 0 00-.7.7c0 .4.3.6.8.6s.6-.3.6-.6a.6.6 0 00-.7-.7zM106.5 32.8c-.4 0-.7.2-.8.7a.7.7 0 00.6.6.6.6 0 00.8-.6.6.6 0 00-.6-.7zM114.7 32.8a.6.6 0 00-.7.7.6.6 0 00.8.6.7.7 0 00.6-.7.7.7 0 00-.7-.6zM6.1 32.8c-.4 0-.7.2-.7.7a.6.6 0 00.7.6.6.6 0 100-1.3zM10.2 32.8c-.4 0-.6.3-.6.7s.3.6.7.6.6-.3.7-.7a.7.7 0 00-.8-.6zM85.5 32.8a.6.6 0 00-.7.6.6.6 0 00.6.7.7.7 0 00.8-.6.6.6 0 00-.7-.7zM22.9 32.8a.6.6 0 00-.8.6.6.6 0 00.6.7c.5 0 .7-.2.8-.7a.7.7 0 00-.6-.6zM31 32.8a.6.6 0 00-.6.7c0 .4.3.6.8.6a.6.6 0 00.6-.6.6.6 0 00-.7-.7zM35.3 32.8a.6.6 0 00-.6.7.7.7 0 001.3 0c0-.5-.3-.7-.7-.7zM39.5 32.8a.6.6 0 10.1 1.3.6.6 0 00.6-.6c0-.5-.2-.7-.7-.7zM47.9 32.8c-.4 0-.7.2-.7.7a.6.6 0 00.7.6c.4 0 .7-.2.7-.7a.6.6 0 00-.7-.6zM52 32.8a.6.6 0 00-.6.6c0 .5.3.7.8.7a.6.6 0 10-.2-1.3zM60.4 32.8c-.4 0-.7.2-.7.6a.6.6 0 00.7.7.6.6 0 00.7-.6c0-.5-.3-.7-.7-.7zM64.6 32.8a.6.6 0 00-.7.7.6.6 0 00.7.6.7.7 0 00.7-.6.7.7 0 00-.7-.7zM73 32.8a.6.6 0 00-.7.7c0 .4.3.6.7.6a.6.6 0 00.7-.6.6.6 0 00-.7-.7zM77.1 32.8a.6.6 0 100 1.3.6.6 0 100-1.3zM87.6 34.9c-.5 0-.7.3-.7.7a.6.6 0 00.7.6c.3 0 .6-.2.6-.9a.6.6 0 00-.6-.4zM91.7 34.9a.7.7 0 00-.6.6.7.7 0 00.7.7c.3 0 .5-.3.6-.7 0-.4-.3-.6-.7-.6zM95.8 34.9c-.3 0-.6.2-.6.6a.7.7 0 00.7.7.7.7 0 00.7-.7c0-.4-.4-.6-.8-.6zM104.3 34.9a.6.6 0 00-.6.6.6.6 0 101.2 0 .6.6 0 00-.6-.6zM108.5 34.9c-.3 0-.6.2-.7.6a.7.7 0 101.3 0c0-.4-.2-.6-.6-.6zM112.7 34.9a.6.6 0 00-.7.6.7.7 0 00.7.7c.4 0 .6-.3.6-.7a.8.8 0 00-.6-.6zM-.1 34.9a.6.6 0 00-.7.6c0 .4.2.6.7.7a.7.7 0 00.6-.6.6.6 0 00-.6-.7zM4 34.9a.6.6 0 00-.7.6.7.7 0 00.7.7c.4 0 .6-.3.7-.7a.8.8 0 00-.7-.6zM8.2 34.9c-.4 0-.6.2-.6.7s.2.5.6.6c.3 0 .6-.2.6-.6a.6.6 0 00-.6-.7zM12.4 34.9a.7.7 0 00-.7.7c0 .3.3.5.7.6a.7.7 0 00.6-.7.6.6 0 00-.6-.6zM16.5 34.9c-.4 0-.6.2-.6.6a.7.7 0 101.3 0 .7.7 0 00-.7-.6zM20.8 34.9c-.5 0-.7.2-.7.6a.6.6 0 00.6.7c.3 0 .6-.2.6-.7a.6.6 0 00-.5-.6zM25 34.9a.7.7 0 00-.8.6.6.6 0 00.7.7.7.7 0 00.6-.7c0-.4-.2-.5-.6-.6zM29 34.9a.6.6 0 00-.6.7.7.7 0 00.6.6c.4 0 .7-.3.7-.7a.7.7 0 00-.7-.6zM37.5 34.9a.7.7 0 00-.7.6.6.6 0 101.3 0 .7.7 0 00-.6-.6zM41.7 34.9a.7.7 0 00-.7.6.6.6 0 00.6.7c.4 0 .6-.3.7-.6s-.2-.7-.6-.7zM45.8 34.9a.6.6 0 00-.6.6.6.6 0 00.6.7c.4 0 .6-.3.7-.7a.8.8 0 00-.7-.6zM50 34.9a.6.6 0 00-.6.7.6.6 0 00.6.6.6.6 0 00.6-.7c0-.4-.2-.6-.6-.6zM54.2 34.9c-.4 0-.7.2-.7.6a.6.6 0 00.7.7.7.7 0 00.6-.7c0-.4-.2-.6-.6-.6zM58.3 34.9a.6.6 0 00-.6.6.7.7 0 00.7.7c.3 0 .5-.3.6-.7a.8.8 0 00-.7-.6zM62.5 34.9c-.4 0-.6.2-.6.7s.3.5.6.6c.4 0 .6-.2.6-.6a.6.6 0 00-.6-.7zM66.7 34.9a.7.7 0 00-.7.6.7.7 0 00.7.7.7.7 0 00.6-.7c0-.4-.2-.6-.6-.6zM70.7 34.9a.6.6 0 00-.5.6c0 .4.3.7.7.7a.7.7 0 00.6-.7c-.1-.4-.3-.7-.8-.6zM75 34.9c-.4 0-.6.3-.6.7a.6.6 0 00.6.6c.4 0 .7-.2.6-.8a.6.6 0 00-.5-.5zM79.2 34.9c-.3 0-.7.2-.7.6a.7.7 0 00.8.7.7.7 0 00.6-.7c0-.4-.3-.6-.7-.6zM83.4 34.9a.6.6 0 00-.7.6.8.8 0 00.6.7c.4 0 .7-.3.7-.6a.6.6 0 00-.6-.7zM48 37c-.3 0-.6.2-.6.6a.6.6 0 00.5.7c.4 0 .6-.3.7-.7a.6.6 0 00-.6-.5zM37.4 39.1a.6.6 0 00-.5.6.6.6 0 101.2 0c0-.4-.3-.5-.7-.6zM50 39.1a.6.6 0 00-.6.6.6.6 0 101.2 0 .6.6 0 00-.6-.6zM33.2 39.1a.6.6 0 100 1.2c.4 0 .6-.2.6-.6a.6.6 0 00-.6-.6zM62.5 39.1a.6.6 0 100 1.2c.4 0 .6-.2.6-.6a.6.6 0 00-.6-.6zM8.2 39.1a.6.6 0 100 1.2c.4 0 .5-.2.6-.6s-.2-.6-.6-.6zM20.7 39.1a.6.6 0 00-.6.6.6.6 0 00.6.6c.4 0 .6-.2.6-.6s-.2-.6-.6-.6zM114.7 37c-.4 0-.6.3-.5.7a.6.6 0 00.5.6c.4 0 .6-.3.7-.7a.7.7 0 00-.7-.6zM6 37c-.3 0-.5.3-.5.6a.6.6 0 00.6.7c.4 0 .6-.3.6-.7A.6.6 0 006 37zM10.3 37c-.4 0-.7.3-.7.7a.6.6 0 00.6.6.6.6 0 00.6-.6c0-.5-.2-.7-.5-.7zM75 39.1a.6.6 0 00-.6.6.6.6 0 00.7.6.6.6 0 00.5-.6c0-.4-.2-.6-.6-.6zM18.6 37c-.5 0-.6.3-.6.7a.6.6 0 00.6.6c.4-.1.7-.3.6-.7a.6.6 0 00-.6-.6zM22.7 37a.6.6 0 00-.5.6.6.6 0 00.6.7c.4 0 .6-.3.6-.7s-.3-.6-.7-.6zM87.5 39.1a.6.6 0 00-.5.6.6.6 0 101.2 0c0-.4-.3-.6-.7-.6zM31.2 37c-.4 0-.6.2-.6.6a.6.6 0 00.5.7c.4 0 .6-.3.7-.7a.7.7 0 00-.6-.6zM35.5 37c-.5 0-.7.2-.7.6s.2.7.6.7a.6.6 0 00.6-.7.6.6 0 00-.5-.6zM39.5 37a.6.6 0 00-.6.6.6.6 0 00.6.7.6.6 0 00.6-.6c0-.5-.2-.7-.6-.7zM100.1 39.1a.6.6 0 00-.6.7.6.6 0 00.6.5c.4 0 .6-.2.6-.6a.6.6 0 00-.6-.6zM104.3 39.1a.6.6 0 100 1.2c.4 0 .6-.2.6-.7s-.2-.5-.6-.5zM52.2 37a.6.6 0 00-.8.6c0 .4.3.6.6.7a.6.6 0 00.6-.6c0-.4 0-.6-.4-.6zM60.5 37c-.4 0-.6.2-.7.5s.2.7.6.8.6-.3.7-.7a.7.7 0 00-.6-.6zM64.6 37c-.4 0-.6.3-.6.7a.6.6 0 00.6.6.6.6 0 00.6-.6c0-.5-.2-.7-.6-.7zM73 37c-.4 0-.6.2-.6.6s.1.6.5.7.6-.3.7-.7a.7.7 0 00-.6-.6zM77 37a.6.6 0 00-.5.6.6.6 0 00.6.7.6.6 0 00.6-.7c0-.3-.2-.5-.6-.6zM85.5 37c-.3 0-.6.2-.6.6a.7.7 0 00.5.7.7.7 0 00.7-.7.6.6 0 00-.6-.5zM89.6 37c-.3 0-.6.3-.6.7a.6.6 0 00.6.6.6.6 0 00.6-.6c0-.5-.2-.7-.6-.7zM98 37c-.5 0-.6.3-.6.7a.6.6 0 00.6.6c.4-.1.6-.3.6-.7a.6.6 0 00-.7-.6zM102.2 37c-.4 0-.6.3-.5.7s.2.6.5.6.6-.3.7-.7a.7.7 0 00-.8-.6zM106.3 37a.6.6 0 00-.5.6.6.6 0 00.6.7c.4 0 .6-.3.6-.7s-.2-.6-.7-.6zM1.9 37a.6.6 0 00-.6.7.5.5 0 00.6.5.6.6 0 00.6-.6.6.6 0 00-.6-.6zM14.5 37a.6.6 0 00-.7.7c0 .3.3.5.7.6.2-.1.5-.2.6-.6a.6.6 0 00-.6-.6zM27 37a.6.6 0 00-.6.7.6.6 0 00.6.5.6.6 0 00.6-.6.6.6 0 00-.6-.5zM43.7 37a.6.6 0 00-.6.6.6.6 0 00.6.6.6.6 0 00.6-.6.6.6 0 00-.6-.6zM110.6 37a.6.6 0 00-.6.7.6.6 0 00.6.5.6.6 0 00.6-.6.6.6 0 00-.6-.5zM93.8 37a.6.6 0 00-.6.7.6.6 0 00.6.5c.4 0 .7-.2.6-.6a.6.6 0 00-.6-.6zM81.3 37a.6.6 0 00-.6.7.5.5 0 00.6.5.6.6 0 100-1.1zM56.3 37a.6.6 0 00-.7.7.6.6 0 00.7.5.6.6 0 00.6-.6.6.6 0 00-.6-.5zM68.7 37a.6.6 0 00-.5.7.5.5 0 00.5.5c.4 0 .7-.2.7-.6a.6.6 0 00-.7-.6zM16.5 39.1a.6.6 0 00-.6.7.6.6 0 00.7.5c.3 0 .5-.3.5-.6s-.3-.6-.6-.6zM24.9 39.1a.6.6 0 000 1.2.6.6 0 100-1.2zM29 39.1a.6.6 0 100 1.2c.4 0 .6-.2.7-.6s-.3-.6-.6-.6zM41.6 39.1a.6.6 0 000 1.2.6.6 0 00.6-.6.6.6 0 00-.6-.6zM45.8 39.1a.6.6 0 00-.6.6c0 .4.3.6.6.6a.6.6 0 00.6-.6.5.5 0 00-.6-.6zM54 39.1c-.2.1-.4.3-.4.6a.5.5 0 00.6.6.6.6 0 00.6-.6c0-.4-.3-.5-.7-.6zM58.3 39.1a.6.6 0 100 1.2c.4 0 .6-.3.6-.7 0-.2-.2-.5-.6-.5zM66.7 39.1a.6.6 0 00-.6.6.5.5 0 00.6.6.6.6 0 00.6-.6c0-.4-.3-.5-.6-.6zM70.8 39.1a.6.6 0 100 1.2c.4 0 .6-.2.6-.7s-.2-.5-.6-.5zM79.3 39.1a.5.5 0 00-.6.6.5.5 0 00.5.6.6.6 0 00.6-.5.6.6 0 00-.5-.7zM83.4 39.1a.6.6 0 00-.6.6.6.6 0 00.6.6c.3 0 .5-.2.6-.6s-.3-.6-.6-.6zM-.1 39.1a.5.5 0 00-.6.6.6.6 0 00.5.6c.4 0 .6-.2.6-.6a.6.6 0 00-.6-.6zM91.8 39.1a.5.5 0 00-.6.6.6.6 0 00.5.6c.4 0 .6-.2.7-.6a.6.6 0 00-.6-.6zM96 39.1c-.4 0-.7.3-.7.6a.6.6 0 00.6.6.5.5 0 00.6-.6.6.6 0 00-.6-.6zM4 39.1a.6.6 0 00-.6.6.6.6 0 00.6.6c.3 0 .5-.2.6-.6s-.2-.6-.6-.6zM12.3 39.1a.6.6 0 00-.5.7.5.5 0 00.6.5.6.6 0 00.6-.6c0-.4-.3-.5-.7-.6zM108.5 39.1a.6.6 0 00-.6.6.6.6 0 00.6.6c.3 0 .6-.2.6-.6a.6.6 0 00-.6-.6zM112.6 39.1a.6.6 0 00-.5.7c0 .3.3.5.6.5a.6.6 0 00.5-.6.5.5 0 00-.6-.6zM52.1 41.3a.5.5 0 00-.6.5c0 .3.2.5.5.6a.6.6 0 00.6-.6c0-.3-.2-.5-.5-.5zM102.1 41.3a.5.5 0 00-.4.5.6.6 0 00.6.6c.3 0 .5-.3.4-.6s-.2-.5-.6-.5zM106.4 41.3a.5.5 0 00-.5.5c0 .3 0 .6.4.6a.6.6 0 00.7-.6.5.5 0 00-.6-.5zM6 41.3a.4.4 0 00-.5.5.6.6 0 00.7.6c.3 0 .4-.3.4-.6s-.2-.5-.6-.5zM10.3 41.3a.5.5 0 00-.6.5.5.5 0 00.6.6.6.6 0 00.5-.6c0-.4-.2-.5-.5-.5zM18.6 41.3c-.3 0-.6.2-.5.5a.5.5 0 00.5.6c.4 0 .5-.2.5-.6a.5.5 0 00-.5-.5zM22.9 41.3c-.4 0-.6.1-.6.5s0 .5.4.6a.6.6 0 00.7-.6.5.5 0 00-.5-.5zM31.1 41.3c-.3 0-.5.2-.5.5a.6.6 0 00.6.6c.3 0 .5-.3.5-.6s-.2-.5-.6-.5zM35.2 41.3a.5.5 0 00-.4.5.6.6 0 00.6.6c.4 0 .5-.3.5-.6s-.3-.5-.7-.5zM39.6 41.3c-.4 0-.6.1-.6.5s.1.6.5.6.5-.2.6-.6a.5.5 0 00-.5-.5zM48 41.3c-.4 0-.7.1-.7.5a.6.6 0 00.6.6.5.5 0 00.5-.5c0-.4-.1-.6-.5-.6zM60.4 41.3c-.3 0-.5.1-.5.5a.6.6 0 00.5.6.5.5 0 00.5-.6c0-.3-.1-.5-.5-.5zM64.6 41.3a.5.5 0 00-.5.5.5.5 0 00.5.6.6.6 0 00.6-.7c0-.3-.3-.4-.6-.4zM114.7 41.3c-.3 0-.5.2-.5.5a.6.6 0 00.6.6c.3 0 .5-.3.5-.6a.5.5 0 00-.6-.5zM72.9 41.3a.4.4 0 00-.5.5.6.6 0 00.6.6c.4 0 .5-.3.5-.6s-.3-.5-.6-.5zM77.1 41.3a.5.5 0 00-.5.5c0 .3.1.6.5.6a.6.6 0 00.6-.6.5.5 0 00-.6-.5zM85.5 41.3c-.4 0-.6.1-.6.5s.3.5.6.6a.5.5 0 00.5-.6.5.5 0 00-.5-.5zM89.6 41.3a.5.5 0 00-.5.5c0 .4.2.6.5.6s.6-.3.6-.7a.5.5 0 00-.6-.4zM98 41.3c-.3 0-.5.2-.5.5a.6.6 0 00.6.6c.3 0 .5-.3.5-.6s-.3-.5-.6-.5zM110.6 41.3a.5.5 0 00-.6.5.6.6 0 00.6.6.5.5 0 00.5-.6c0-.3-.2-.5-.5-.5zM1.9 41.3a.5.5 0 00-.5.5c0 .3.2.6.6.6s.4-.3.5-.6a.6.6 0 00-.6-.5zM68.8 41.3a.5.5 0 00-.6.4.6.6 0 00.6.7c.3 0 .4-.3.5-.6a.5.5 0 00-.5-.5zM27 41.3a.5.5 0 00-.6.5.6.6 0 101.1 0c0-.3-.2-.5-.5-.5zM43.7 41.3c-.3 0-.6.2-.5.5a.6.6 0 00.5.6.5.5 0 00.6-.6.5.5 0 00-.6-.5zM14.5 41.3a.5.5 0 00-.6.5.6.6 0 001 0c.1-.3-.1-.5-.4-.5zM56.2 41.3c-.3 0-.5.2-.5.5a.6.6 0 001 0c.1-.3-.1-.5-.5-.5zM81.3 41.3a.5.5 0 00-.5.5.5.5 0 00.5.6c.4 0 .5-.3.6-.6a.6.6 0 00-.6-.5zM93.8 41.3a.5.5 0 00-.5.5.6.6 0 00.6.6c.3 0 .4-.3.5-.6a.6.6 0 00-.6-.5zM96 43.5c-.4 0-.6.1-.6.4s.2.5.5.5.5-.2.5-.4-.1-.5-.5-.5zM100.2 43.5c-.3 0-.5 0-.6.4s.2.5.5.5.5-.1.6-.5-.2-.4-.5-.4zM108.5 43.5a.5.5 0 00-.5.5.5.5 0 001 0 .5.5 0 00-.5-.5zM41.5 43.5c-.2 0-.3.1-.4.4a.4.4 0 00.5.5c.3 0 .5 0 .5-.4s-.1-.5-.6-.5zM-.2 43.5a.5.5 0 00-.5.5.4.4 0 00.5.5c.3 0 .6-.2.5-.6s-.2-.4-.5-.4zM4 43.5c-.3 0-.5.1-.5.5s.2.4.6.4c.2 0 .4-.1.4-.4a.4.4 0 00-.4-.5zM112.6 43.5a.5.5 0 00-.4.5.5.5 0 00.5.4.4.4 0 00.5-.4.5.5 0 00-.6-.5zM12.3 43.5a.4.4 0 00-.5.5.4.4 0 00.5.4c.4 0 .6-.1.6-.5s-.3-.4-.6-.4zM16.5 43.5c-.3 0-.5.2-.5.5s.3.4.6.4.4-.2.4-.4-.1-.5-.5-.5zM58.4 43.5c-.3 0-.6.1-.6.5s.2.4.6.4c.3 0 .4-.1.4-.4a.4.4 0 00-.4-.5zM25 43.5a.5.5 0 100 1 .5.5 0 00.4-.5.5.5 0 00-.5-.5zM29 43.5c-.2 0-.4.1-.5.4s.2.5.6.5.4-.2.5-.4-.2-.5-.5-.5zM33.2 43.5a.4.4 0 00-.4.5.5.5 0 00.5.4.5.5 0 00.5-.4.5.5 0 00-.6-.5zM45.8 43.5c-.3 0-.5.1-.5.5s.2.4.6.4a.4.4 0 00.4-.5.5.5 0 00-.5-.4zM54 43.5c-.1 0-.3.1-.3.4a.4.4 0 00.4.5c.3 0 .5 0 .6-.4s-.2-.5-.6-.5zM66.7 43.5a.5.5 0 100 1 .5.5 0 00.5-.5.4.4 0 00-.5-.5zM70.8 43.5a.4.4 0 00-.4.4c0 .4.1.5.5.5a.4.4 0 00.5-.4c0-.3-.2-.5-.6-.5zM79.2 43.5a.5.5 0 00-.5.4.5.5 0 00.6.5.5.5 0 00.4-.5.5.5 0 00-.5-.4zM83.4 43.5a.5.5 0 00-.5.5c0 .3.2.4.5.4s.5-.2.5-.5-.2-.4-.5-.4zM91.6 43.5c-.2 0-.3.1-.4.4a.4.4 0 00.5.5c.3 0 .5 0 .5-.5s-.2-.4-.6-.4zM8.2 43.5a.4.4 0 00-.5.5c0 .3.2.4.5.4a.4.4 0 00.4-.5.4.4 0 00-.4-.4zM20.7 43.5a.5.5 0 000 1 .5.5 0 100-1zM87.5 43.5a.5.5 0 00-.4.4.4.4 0 00.4.5.4.4 0 00.5-.4c0-.3-.1-.5-.5-.5zM62.5 43.5a.4.4 0 00-.5.5.5.5 0 001 0 .4.4 0 00-.5-.5zM37.5 43.5a.4.4 0 00-.5.5.5.5 0 001 0 .4.4 0 00-.5-.5zM50 43.5a.4.4 0 00-.5.5.4.4 0 00.5.4.5.5 0 100-1zM104.3 43.5a.4.4 0 00-.5.5.4.4 0 00.5.4.5.5 0 100-1zM75 43.5a.4.4 0 00-.4.4.4.4 0 00.4.5c.3 0 .5-.1.5-.4a.4.4 0 00-.5-.5zM102.2 45.6c-.2 0-.4.1-.4.4s0 .5.4.5a.5.5 0 00.5-.5c0-.2-.2-.4-.5-.4zM73 45.6c-.4 0-.5.2-.5.5s.2.4.5.4a.4.4 0 00.4-.5.5.5 0 00-.5-.4zM114.8 45.6a.4.4 0 00-.5.4q0 .5.5.5c.2 0 .4-.2.4-.4a.5.5 0 00-.5-.5zM77 45.6a.5.5 0 00-.4.5c0 .3.3.4.5.4s.5-.2.4-.5 0-.5-.4-.4zM6 45.6c-.3 0-.4.2-.3.5s.2.4.5.4a.4.4 0 00.4-.5c-.1-.3-.3-.5-.5-.4zM10.3 45.6a.5.5 0 00-.5.5c0 .2.2.4.4.4s.5-.2.5-.5a.4.4 0 00-.4-.4zM106.4 45.6a.5.5 0 00-.5.4c0 .4.2.5.5.5s.4-.2.4-.5-.1-.4-.4-.4zM18.6 45.6c-.3 0-.4.2-.4.5a.4.4 0 00.4.4c.3 0 .5-.1.5-.4a.5.5 0 00-.5-.5zM22.9 45.6a.5.5 0 00-.6.4c0 .3.2.5.5.5s.4-.1.4-.4 0-.5-.3-.5zM98 45.6c-.3 0-.4.2-.4.4s.1.5.4.5.5-.1.5-.4a.5.5 0 00-.5-.5zM31.1 45.5a.5.5 0 00-.4.5c0 .4.2.5.5.5s.4-.2.4-.5a.5.5 0 00-.5-.5zM35.4 45.6c-.3 0-.4.1-.4.4s0 .5.4.5a.4.4 0 00.5-.4.5.5 0 00-.5-.5zM39.5 45.6a.5.5 0 00-.4.5c0 .3.2.4.5.4s.4-.2.4-.5-.2-.5-.5-.4zM85.5 45.6c-.3 0-.4.1-.5.4s.2.5.5.5a.5.5 0 00.5-.5c-.1-.2-.2-.4-.5-.4zM47.9 45.6a.4.4 0 00-.4.4c0 .3.1.5.4.5s.5-.2.5-.4a.5.5 0 00-.5-.5zM52.1 45.6a.5.5 0 00-.5.5c0 .2.2.4.5.4s.4-.1.4-.4 0-.5-.4-.5zM89.7 45.6a.5.5 0 00-.5.4c0 .4.2.5.5.5a.4.4 0 00.4-.5c0-.2-.1-.4-.4-.4zM60.4 45.6c-.2 0-.4.1-.4.4s.1.5.4.5a.5.5 0 00.5-.5.6.6 0 00-.5-.4zM64.6 45.6a.5.5 0 00-.5.5c0 .2.2.4.5.4s.4-.1.4-.4 0-.5-.4-.5zM14.5 45.6a.4.4 0 100 .9c.2 0 .4-.2.4-.5a.4.4 0 00-.4-.4zM110.6 45.6a.4.4 0 10.4.4.4.4 0 00-.4-.4zM2 45.6c-.3 0-.5.1-.5.4a.4.4 0 00.4.5.4.4 0 00.5-.5c0-.3-.2-.4-.5-.4zM27 45.6a.4.4 0 10.4.5.4.4 0 00-.4-.5zM43.8 45.6a.4.4 0 00-.5.4c0 .3.1.5.5.5a.4.4 0 00.4-.4.4.4 0 00-.4-.5zM56.3 45.6a.4.4 0 100 .9.4.4 0 00.4-.5.4.4 0 00-.4-.4zM68.8 45.6c-.2 0-.5 0-.5.4a.4.4 0 00.4.5c.3 0 .5-.1.5-.5s-.2-.4-.4-.4zM81.3 45.6c-.2 0-.5.1-.5.4a.4.4 0 00.4.5.4.4 0 00.5-.5c0-.3-.2-.4-.4-.4zM93.8 45.6a.4.4 0 100 .9.4.4 0 100-1zM33.3 47.7c-.3 0-.5.1-.5.4a.4.4 0 00.4.5.4.4 0 00.5-.5.4.4 0 00-.4-.4zM100 47.7c-.2 0-.4.2-.4.5a.5.5 0 00.5.4.4.4 0 00.4-.5.4.4 0 00-.4-.4zM104.4 47.7a.4.4 0 00-.5.4c0 .3.1.4.4.5a.5.5 0 00.4-.4.4.4 0 00-.3-.5zM8.2 47.7c-.3 0-.5.1-.5.4a.4.4 0 101 0c0-.2-.3-.4-.5-.4zM20.7 47.7c-.2 0-.4.1-.4.4s.1.4.4.5c.2 0 .4-.2.4-.5a.4.4 0 00-.4-.4zM37.4 47.7c-.2 0-.4.2-.4.4a.4.4 0 00.5.5.4.4 0 00.4-.5c0-.3-.2-.4-.5-.4zM50 47.7a.4.4 0 00-.4.4.4.4 0 00.4.5c.3 0 .4-.2.4-.5a.4.4 0 00-.5-.4zM62.5 47.7c-.3 0-.4.2-.4.4a.4.4 0 00.4.5.4.4 0 00.4-.5c0-.3-.2-.4-.4-.4zM75 47.7a.4.4 0 00-.4.5.5.5 0 00.5.4c.2-.1.4-.2.4-.5a.4.4 0 00-.5-.4zM87.5 47.7a.4.4 0 00-.4.4.4.4 0 00.5.5c.2 0 .4-.2.4-.5a.4.4 0 00-.5-.4zM64.6 49.8c-.3 0-.4.2-.4.4s.2.5.4.4a.4.4 0 00.4-.4.4.4 0 00-.4-.4zM73 49.8c-.3.1-.5.2-.4.4a.4.4 0 00.4.4c.2 0 .3-.1.3-.4a.3.3 0 00-.4-.4zM6 49.8a.4.4 0 00-.3.5.4.4 0 00.4.3c.3 0 .4-.2.4-.4s-.2-.4-.4-.4zM77.2 49.8c-.3 0-.4.2-.4.4a.4.4 0 00.3.5c.2-.1.4-.2.4-.4a.4.4 0 00-.3-.5zM10.2 49.8a.4.4 0 00-.3.5c0 .2.1.4.4.3a.4.4 0 00.4-.4c0-.3-.3-.3-.5-.4zM18.6 49.8a.4.4 0 00-.4.4c0 .3.2.4.4.4s.3-.1.4-.3-.1-.5-.4-.5zM22.8 49.8a.4.4 0 00-.4.4c0 .3.2.5.4.4a.4.4 0 00.4-.4c0-.2-.2-.3-.4-.4zM31.2 49.8c-.2 0-.4.2-.5.4s.2.4.4.4.4-.1.4-.3a.4.4 0 00-.3-.5zM35.4 49.8a.4.4 0 000 .8c.3 0 .4-.1.4-.3s-.1-.5-.4-.5zM39.5 49.8c-.2 0-.3.2-.3.4s.1.5.3.4a.4.4 0 000-.8zM85.4 49.8a.4.4 0 00-.3.5.4.4 0 00.4.3c.3 0 .3-.2.3-.4s-.1-.4-.4-.4zM47.9 49.8c-.2 0-.4.2-.4.5a.4.4 0 00.4.3c.3 0 .4-.2.4-.4s-.2-.4-.4-.4zM52 49.8c-.2 0-.3.2-.3.4a.4.4 0 00.4.4c.2 0 .4-.1.4-.4a.4.4 0 00-.4-.4zM60.4 49.8a.4.4 0 000 .8c.3 0 .4-.1.4-.3s-.1-.5-.4-.5zM89.6 49.8c-.2 0-.3.2-.3.5s.1.3.4.3.4-.1.3-.4a.4.4 0 00-.4-.4zM98 49.8a.4.4 0 00-.4.4.4.4 0 00.4.4c.3 0 .4-.2.4-.4s-.2-.4-.4-.4zM102.2 49.8c-.2 0-.4.2-.4.5a.4.4 0 00.4.3c.3 0 .4-.2.4-.4s-.1-.4-.4-.4zM106.4 49.8c-.3 0-.4.2-.4.4s.2.5.4.4a.4.4 0 00.4-.4.4.4 0 00-.4-.4zM114.8 49.8a.4.4 0 00-.4.4.4.4 0 00.3.4c.3 0 .4-.1.4-.4s-.1-.4-.3-.4zM29 47.7a.4.4 0 00-.3.4.3.3 0 00.4.4.4.4 0 00.4-.4.4.4 0 00-.4-.4zM41.6 47.7a.4.4 0 00-.4.4.4.4 0 00.4.4.3.3 0 00.4-.3c0-.3-.1-.5-.4-.5zM45.8 47.7a.4.4 0 00-.4.4c0 .3.2.4.4.4s.4-.1.4-.4a.3.3 0 00-.4-.4zM54.2 47.8a.3.3 0 00-.4.3.4.4 0 00.3.4c.2 0 .4 0 .4-.3s0-.4-.3-.5zM58.3 47.7a.4.4 0 00-.3.4c0 .3.1.4.3.4a.4.4 0 00.4-.4.4.4 0 00-.4-.4zM66.7 47.8a.4.4 0 00-.4.3.3.3 0 00.3.4c.2 0 .4 0 .5-.3a.4.4 0 00-.4-.5zM70.8 47.7a.4.4 0 00-.3.5c0 .2.2.3.4.3a.4.4 0 100-.8zM83.4 47.7a.4.4 0 00-.4.4c0 .3.2.4.4.4a.4.4 0 00.4-.4.4.4 0 00-.4-.4zM91.7 47.7a.3.3 0 00-.4.4.4.4 0 00.4.4c.3 0 .4 0 .4-.4a.4.4 0 00-.4-.4zM96 47.7a.3.3 0 00-.4.4c0 .3 0 .4.3.4a.4.4 0 00.5-.3.4.4 0 00-.4-.5zM108.4 47.7a.4.4 0 00-.3.5.4.4 0 00.4.3.3.3 0 00.4-.4.4.4 0 00-.5-.4zM112.7 47.7a.4.4 0 00-.4.4c0 .2 0 .4.3.4s.4 0 .4-.3a.3.3 0 00-.3-.5zM79.2 47.7a.3.3 0 00-.4.4c0 .3.2.4.4.4s.4-.1.4-.4-.2-.4-.4-.4zM-.2 47.7a.4.4 0 00-.4.4c0 .3.2.4.4.4s.4-.1.4-.4a.3.3 0 00-.4-.4zM4 47.7a.4.4 0 00-.4.4c0 .3.1.4.4.4a.4.4 0 00.4-.4.4.4 0 00-.4-.4zM12.3 47.7a.3.3 0 00-.3.4.4.4 0 00.4.4c.2 0 .3-.1.3-.4s-.1-.4-.4-.4zM16.6 47.7a.4.4 0 00-.4.4c0 .3 0 .4.3.4a.4.4 0 00.4-.3.3.3 0 00-.3-.5zM24.8 47.7a.4.4 0 00-.3.5.4.4 0 00.4.3c.3 0 .4-.1.3-.4s-.1-.4-.4-.4zM100.1 52c-.2 0-.3 0-.3.3a.4.4 0 00.3.4.3.3 0 00.4-.3c0-.3-.1-.4-.4-.4zM29.1 52a.4.4 0 00-.4.3.3.3 0 00.4.4.3.3 0 00.3-.3.4.4 0 00-.3-.4zM83.4 52a.4.4 0 100 .7.4.4 0 00.3-.4c0-.2 0-.3-.3-.3zM79.1 52a.4.4 0 00-.3.4.3.3 0 00.4.3.3.3 0 00.3-.4c0-.2-.1-.3-.4-.3zM71 52a.3.3 0 00-.5.4c0 .2.2.3.4.3a.3.3 0 00.3-.3.3.3 0 00-.3-.4zM66.7 52a.4.4 0 00-.4.3.3.3 0 00.3.4.3.3 0 00.4-.3c0-.3-.1-.4-.3-.4zM58.4 52a.4.4 0 100 .7.4.4 0 00.3-.3.3.3 0 00-.3-.4zM54.1 52a.4.4 0 00-.3.4.4.4 0 10.7 0 .3.3 0 00-.4-.4zM45.8 52a.4.4 0 00-.3.4.3.3 0 00.3.3.3.3 0 00.4-.4c0-.2-.2-.3-.4-.3zM41.6 52a.3.3 0 00-.3.3.3.3 0 00.4.4.4.4 0 00-.1-.7zM-.2 52a.4.4 0 00-.3.3.3.3 0 00.2.4.3.3 0 00.5-.3c0-.3-.2-.4-.4-.4zM4 52a.3.3 0 00-.4.4.3.3 0 00.4.3.4.4 0 00.4-.4.3.3 0 00-.4-.3zM12.4 52a.3.3 0 00-.4.4.3.3 0 00.3.3c.2 0 .4-.1.4-.4a.4.4 0 00-.3-.3zM16.5 52a.4.4 0 00-.3.4.4.4 0 10.7 0c0-.3-.1-.4-.4-.4zM112.7 52a.3.3 0 00-.4.4.3.3 0 00.7 0 .3.3 0 00-.3-.4zM24.9 52a.4.4 0 100 .7.3.3 0 00.3-.4.4.4 0 00-.3-.3zM91.7 52a.3.3 0 00-.3.3.3.3 0 00.3.4c.2 0 .4-.2.4-.4a.4.4 0 00-.4-.3zM96 52a.3.3 0 00-.4.3.3.3 0 00.4.4c.2 0 .3-.2.3-.4a.4.4 0 00-.4-.3zM108.5 52a.3.3 0 00-.4.4c0 .2.2.3.4.3s.3-.1.3-.3a.3.3 0 00-.3-.4zM33.2 52c-.2 0-.3.1-.3.3s.1.4.3.4a.4.4 0 00.4-.4.4.4 0 00-.4-.3zM62.5 52a.3.3 0 00-.3.3c0 .2.1.4.3.4s.3-.2.3-.4a.3.3 0 00-.3-.3zM75 52a.3.3 0 00-.3.3c0 .2 0 .4.3.4s.3-.2.3-.4 0-.3-.3-.3zM87.5 52a.3.3 0 00-.2.3c0 .2 0 .4.2.4s.3-.2.4-.4-.1-.3-.4-.3zM37.4 52c-.2 0-.3.2-.2.4a.3.3 0 00.2.3c.3 0 .3-.2.4-.4s-.1-.3-.4-.3zM8.2 52c-.2 0-.3 0-.3.3a.3.3 0 00.3.4.3.3 0 00.3-.4.3.3 0 00-.3-.3zM20.7 52a.3.3 0 00-.3.3c0 .2 0 .4.3.4s.3-.2.3-.4 0-.3-.3-.3zM104.3 52c-.2 0-.3.2-.3.3s.1.4.3.4.3-.2.3-.4a.3.3 0 00-.3-.3zM50 52a.3.3 0 00-.3.3c0 .2 0 .4.3.4s.3-.2.3-.4-.1-.3-.3-.3zM27 50c-.2 0-.3 0-.3.3a.3.3 0 00.3.2c.2 0 .3 0 .3-.3a.3.3 0 00-.3-.3zM14.5 50a.3.3 0 00-.4.2.3.3 0 00.3.3.3.3 0 00.3-.3.3.3 0 00-.2-.3zM81.3 50c-.2 0-.3 0-.3.2s0 .3.3.3a.3.3 0 00.3-.3c0-.2 0-.3-.3-.3zM68.7 50a.3.3 0 00-.2.2c0 .3 0 .4.3.4a.3.3 0 00.3-.4.3.3 0 00-.4-.3zM93.8 50a.3.3 0 00-.3.2.3.3 0 00.3.3.3.3 0 00.3-.3c0-.2-.1-.3-.3-.3zM56.3 50c-.2 0-.4 0-.4.2s.1.3.3.3.3 0 .4-.3-.1-.3-.3-.3zM43.8 50c-.3 0-.4 0-.4.2a.3.3 0 00.3.3c.2 0 .3 0 .3-.3a.3.3 0 00-.3-.3zM110.5 50a.3.3 0 00-.2.2c0 .3.1.4.3.3s.3-.1.3-.3-.2-.3-.4-.3zM1.9 50a.3.3 0 00-.3.2c0 .3.1.4.3.4a.3.3 0 00.3-.4c0-.2-.1-.3-.3-.3z"/></g><path class="cls-2" d="M67.2 99v-.3c0-3-1.8-5-4.4-5a4.3 4.3 0 00-3 1.3 4.2 4.2 0 00-1.3 3 4.3 4.3 0 001.2 3 4 4 0 003.1 1.4 4.1 4.1 0 004-2.6h-2.7a1.8 1.8 0 01-1.2.5 1.7 1.7 0 01-1.9-1.4zm-2.5-1.8H61a1.8 1.8 0 012-1.3 1.9 1.9 0 011.8 1.3M76.2 99v-.3c0-3-1.8-5-4.4-5a4.3 4.3 0 00-3 1.3 4.1 4.1 0 00-1.2 3 4.3 4.3 0 001.2 3 4 4 0 003 1.4 4.1 4.1 0 004-2.6h-2.6a1.8 1.8 0 01-1.2.5 1.7 1.7 0 01-2-1.4zm-2.4-1.8H70a1.8 1.8 0 011.9-1.3 1.9 1.9 0 012 1.3M55.1 95.8v6.4h2.4v-6.4h1V94h-1v-.2c0-.7.2-1 .9-1v-1.6h-.3c-2 0-3 .8-3 2.5v.3h-.8v1.8zM77.1 95.8v6.4h2.4v-6.4h1V94h-1v-.2c0-.7.1-1 .9-1v-1.6H80c-2 0-2.9.8-2.9 2.5v.3h-.9v1.8zM89 98a4.3 4.3 0 00-4.3-4.2 4.3 4.3 0 00-3 1.2 4.2 4.2 0 00-1.3 3 4.3 4.3 0 001.2 3 4 4 0 003 1.3 4.2 4.2 0 003.2-1.2A4.2 4.2 0 0089 98m-2.4 0a2 2 0 11-2-2 2 2 0 012 2M92.7 96.7a2.3 2.3 0 01-2.1-2.1h5v-.1a3 3 0 10-6.2-.2 3 3 0 003.1 3.1 3 3 0 002.9-2h-.5a2.3 2.3 0 01-2.1 1.3h-.1M99.1 96.7a2.3 2.3 0 002.2-2.1h-5v-.1a3 3 0 116-.2 3 3 0 01-3 3.1 3 3 0 01-2.9-2h.5a2.3 2.3 0 002.1 1.3h.1M20.5 12.2h-4V24h-2.8V12.2H9.8V9.4h10.7zM26.5 13.4v3a2.6 2.6 0 00-3.2 2.6v5h-2.6V13.6h2.6v1.8a3.2 3.2 0 013.2-2zM37.6 13.6V24h-2.7v-1.2a3.5 3.5 0 01-3 1.4c-2.3 0-4-1.5-4-4.2v-6.4h2.7v6a2 2 0 002 2.2c1.3 0 2.3-.8 2.3-2.6v-5.6zM47.8 21c0 2.2-2 3.2-4.2 3.2a4.5 4.5 0 01-4.4-2.4l2.4-1.3a2 2 0 002 1.3c.8 0 1.4-.3 1.4-.9 0-1.5-5.3-.7-5.3-4.3 0-2.1 1.8-3.3 4-3.3a4.4 4.4 0 013.9 2.2l-2.3 1.2a1.8 1.8 0 00-1.7-1c-.6 0-1.2.3-1.2.8 0 1.6 5.4.6 5.4 4.4zM52.8 16.1v4.4c0 1 .8 1.1 2.4 1V24c-3.8.4-5-.7-5-3.5v-4.4h-1.9v-2.5h1.8v-2.1l2.7-.8v2.9h2.4v2.6zM62 21.8a2.9 2.9 0 002.3-1l2.1 1.2a5.3 5.3 0 01-4.5 2.2 5.3 5.3 0 01-5.7-5.5 5.3 5.3 0 015.5-5.5 5.3 5.3 0 015.2 5.5 6.5 6.5 0 010 1.1H59a2.7 2.7 0 003 2zm2.3-4a2.5 2.5 0 00-2.6-2 2.6 2.6 0 00-2.7 2zM79.3 9.4V24h-2.7v-1.3a4 4 0 01-3.3 1.6 5.3 5.3 0 01-5.1-5.5 5.3 5.3 0 015-5.5 4 4 0 013.4 1.5V9.4zm-2.7 9.4a2.9 2.9 0 10-5.7 0 2.9 2.9 0 105.7 0zM10 37.5l2.5-1.5a3.3 3.3 0 003.3 2.2c1.7 0 2.3-.7 2.3-1.5 0-1.1-1-1.5-3.1-2.1s-4.4-1.6-4.4-4.3 2.3-4.4 4.8-4.4a5.5 5.5 0 015.2 3.3l-2.4 1.4a2.9 2.9 0 00-2.8-1.9c-1.2 0-2 .7-2 1.5s.6 1.4 2.8 2 4.8 1.5 4.8 4.5c0 2.7-2.2 4.4-5.3 4.4s-4.9-1.5-5.7-3.6zM28.2 38.6a2.9 2.9 0 002.4-1l2.1 1.3a5.3 5.3 0 01-4.5 2.2 5.5 5.5 0 11-.2-11 5.3 5.3 0 015.2 5.5 6.4 6.4 0 010 1h-7.9a2.7 2.7 0 003 2zm2.4-4a2.5 2.5 0 00-2.6-2 2.6 2.6 0 00-2.7 2zM41 30.2v3a2.6 2.6 0 00-3.2 2.6v5h-2.7V30.4h2.7v1.8a3.2 3.2 0 013.2-2zM52.3 30.4l-4 10.4h-3l-4-10.4h3l2.5 7.3 2.5-7.3zM53.3 27.5a1.6 1.6 0 111.6 1.6 1.6 1.6 0 01-1.6-1.6zm.3 2.9h2.7v10.4h-2.7zM58.2 35.6a5.4 5.4 0 015.4-5.5 5.2 5.2 0 014.7 2.7L66 34a2.6 2.6 0 00-2.4-1.4 2.8 2.8 0 000 5.7A2.6 2.6 0 0066 37l2.3 1.3a5.5 5.5 0 01-10.1-2.7zM74.8 38.6a2.8 2.8 0 002.3-1l2.2 1.3a5.2 5.2 0 01-4.5 2.2 5.5 5.5 0 11-.2-11 5.3 5.3 0 015.2 5.5 6.4 6.4 0 010 1h-8a2.7 2.7 0 003 2zm2.3-4a2.5 2.5 0 00-2.5-2 2.6 2.6 0 00-2.8 2zM19 55.2h-5.7l-.9 2.6h-3l5-14.6H18l5.1 14.6H20zm-.8-2.7l-2-6-2 6zM38.5 47.4l-3.3 10.4h-2.6l-1.9-6.3-1.9 6.3h-2.5L23 47.4h2.8l1.8 6.4 1.9-6.4H32l1.9 6.4 1.8-6.4zM50.1 47.4v10.4h-2.7v-1.3a4.1 4.1 0 01-3.3 1.6 5.5 5.5 0 010-11 4.1 4.1 0 013.3 1.5v-1.2zm-2.7 5.2a2.9 2.9 0 10-2.8 3 2.8 2.8 0 002.8-3zM58.4 47.2v3a2.6 2.6 0 00-3.2 2.6v5h-2.7V47.4h2.7v1.8a3.2 3.2 0 013.2-2zM70.1 43.2v14.6h-2.6v-1.3a4 4 0 01-3.4 1.6 5.5 5.5 0 010-11 4 4 0 013.4 1.5v-5.4zm-2.6 9.4a2.9 2.9 0 10-3 3 2.8 2.8 0 003-3zM24.3 69c-.2-.6-1.2-.6-1.7-.7l-3.3-.4-1.3-2.7c-.3-.5-.5-1.6-1.2-1.6s-1 1.2-1.2 1.7L14.3 68l-3.2.6c-.5 0-1.5 0-1.6.7s.8 1.1 1.1 1.4l2.2 2L12 76c0 .5-.5 1.4 0 1.8s1.4-.4 1.8-.7a18.4 18.4 0 013-1.7c1 .5 2 1.3 2.9 1.7.4.2 1.3 1 1.8.6s0-1.3 0-1.7l-.8-3.3 2.4-2.2c.4-.3 1.3-.9 1.1-1.5M43.1 69c-.2-.6-1.2-.6-1.7-.7l-3.3-.4-1.3-2.7c-.3-.5-.5-1.6-1.2-1.6s-1 1.2-1.2 1.7L33 68l-3.2.6c-.5 0-1.5 0-1.6.7s.7 1.1 1.1 1.4l2.2 2-.7 3.3c-.1.5-.5 1.4 0 1.8s1.4-.4 1.8-.7a18.4 18.4 0 013-1.7c1 .5 2 1.3 2.9 1.7.4.2 1.3 1 1.8.6s0-1.3 0-1.7l-.8-3.3 2.4-2.2c.3-.3 1.3-.9 1-1.5M61.9 69c-.2-.6-1.2-.6-1.7-.7l-3.3-.4-1.4-2.7c-.2-.5-.4-1.6-1.2-1.6s-1 1.2-1.1 1.7L51.8 68l-3 .6c-.6 0-1.6 0-1.7.7s.7 1.1 1 1.4l2.2 2-.6 3.3c-.1.5-.6 1.4 0 1.8s1.4-.4 1.8-.7a18.9 18.9 0 013-1.7c1 .5 2 1.3 2.9 1.7.4.2 1.3 1 1.8.6s0-1.3 0-1.7l-.8-3.3 2.4-2.2c.3-.3 1.3-.9 1-1.5M80.7 69c-.2-.6-1.2-.6-1.7-.7l-3.3-.4c-.5-1-1-1.7-1.4-2.7-.2-.5-.4-1.6-1.2-1.6s-1 1.2-1.1 1.7L70.5 68l-3.1.6c-.5 0-1.5 0-1.6.7s.7 1.1 1 1.4l2.2 2-.6 3.3c-.1.5-.6 1.4 0 1.8s1.4-.4 1.8-.7a18.4 18.4 0 013-1.7l2.8 1.7c.5.2 1.4 1 1.9.6s0-1.3 0-1.7c-.4-1-.6-2.2-.9-3.3.8-.7 1.7-1.4 2.4-2.2.4-.3 1.3-.9 1.2-1.5M99.5 69c-.2-.6-1.2-.6-1.7-.7l-3.3-.4c-.5-1-1-1.7-1.4-2.7-.2-.5-.4-1.6-1.2-1.6s-1 1.2-1.2 1.7L89.4 68l-3.1.6c-.5 0-1.5 0-1.7.7s.8 1.1 1.2 1.4l2.1 2-.6 3.3c-.1.5-.6 1.4 0 1.8s1.4-.4 1.8-.7a18.4 18.4 0 013-1.7l2.9 1.7c.4.2 1.4 1 1.9.5s0-1.2-.1-1.6l-.8-3.3 2.4-2.2c.4-.3 1.3-.9 1.1-1.5M33.1 100.7c-1 0-1.6-1-1.6-2.8S32 95 33 95s1.7 1 1.7 2.8-.6 2.8-1.7 2.8m0 1.6c2.1 0 3.3-1.8 3.3-4.4s-1.2-4.4-3.3-4.4-3.2 1.8-3.2 4.4 1.2 4.4 3.2 4.4m-9.4-.1h5.5v-1.7H26l1.6-1.6A4 4 0 0029 96a2.6 2.6 0 00-2.7-2.6 2.9 2.9 0 00-2.7 1.8l1.4.8a1.5 1.5 0 011.3-1 1 1 0 011 1.1 2.8 2.8 0 01-.8 1.7l-2.8 3zm-3.7-1.5c-1 0-1.6-1-1.6-2.8S18.9 95 20 95s1.7 1 1.7 2.8-.7 2.8-1.7 2.8m0 1.6c2 0 3.3-1.8 3.3-4.4S22 93.5 20 93.5s-3.3 1.8-3.3 4.4 1.2 4.4 3.3 4.4m-9.4-.2H16v-1.6h-3l1.5-1.6a4 4 0 001.3-2.8 2.6 2.6 0 00-2.6-2.6 2.9 2.9 0 00-2.7 1.8l1.3.8a1.5 1.5 0 011.4-1 1 1 0 011 1.1 2.8 2.8 0 01-.9 1.7l-2.8 3z"/></svg>